<?xml version="1.0" encoding="UTF-8" standalone="no"?>
<!-- Created with Inkscape (http://www.inkscape.org/) -->

<svg
   width="600"
   height="3000"
   viewBox="0 0 158.75 793.75"
   version="1.1"
   id="svg1"
   inkscape:version="1.3.2 (1:1.3.2+202311252150+091e20ef0f)"
   sodipodi:docname="myPartG.svg"
   xmlns:inkscape="http://www.inkscape.org/namespaces/inkscape"
   xmlns:sodipodi="http://sodipodi.sourceforge.net/DTD/sodipodi-0.dtd"
   xmlns="http://www.w3.org/2000/svg"
   xmlns:svg="http://www.w3.org/2000/svg">
  <sodipodi:namedview
     id="namedview1"
     pagecolor="#ffffff"
     bordercolor="#666666"
     borderopacity="1.0"
     inkscape:showpageshadow="2"
     inkscape:pageopacity="0.0"
     inkscape:pagecheckerboard="0"
     inkscape:deskcolor="#d1d1d1"
     inkscape:document-units="px"
     inkscape:zoom="1.0583334"
     inkscape:cx="330.70865"
     inkscape:cy="309.92125"
     inkscape:window-width="1370"
     inkscape:window-height="836"
     inkscape:window-x="0"
     inkscape:window-y="0"
     inkscape:window-maximized="1"
     inkscape:current-layer="layer1" />
  <defs
     id="defs1">
    <rect
       x="347.78296"
       y="105.41338"
       width="149.87819"
       height="56.500982"
       id="rect11" />
    <rect
       x="393.36244"
       y="104.4279"
       width="105.01476"
       height="47.782971"
       id="rect10" />
    <rect
       x="182.83509"
       y="433.72292"
       width="165.09577"
       height="73.265254"
       id="rect9" />
    <rect
       x="229.26303"
       y="409.43097"
       width="65.174703"
       height="31.771653"
       id="rect8" />
    <rect
       x="173.77153"
       y="394.81113"
       width="53.572218"
       height="38.324925"
       id="rect7" />
    <rect
       x="32.340058"
       y="172.91338"
       width="131.56373"
       height="47.75898"
       id="rect6" />
    <rect
       x="40.369811"
       y="366.15741"
       width="32.861151"
       height="38.550721"
       id="rect5" />
    <rect
       x="113.00702"
       y="378.82322"
       width="78.251089"
       height="51.868995"
       id="rect4" />
    <marker
       style="overflow:visible"
       id="RoundedArrow"
       refX="0"
       refY="0"
       orient="auto-start-reverse"
       inkscape:stockid="Rounded arrow"
       markerWidth="1"
       markerHeight="1"
       viewBox="0 0 1 1"
       inkscape:isstock="true"
       inkscape:collect="always"
       preserveAspectRatio="xMidYMid">
      <path
         transform="scale(0.7)"
         d="m -0.21114562,-4.1055728 6.42229122,3.21114561 a 1,1 90 0 1 0,1.78885438 L -0.21114562,4.1055728 A 1.236068,1.236068 31.717474 0 1 -2,3 v -6 a 1.236068,1.236068 148.28253 0 1 1.78885438,-1.1055728 z"
         style="fill:context-stroke;fill-rule:evenodd;stroke:none"
         id="path8" />
    </marker>
    <rect
       x="19.652488"
       y="17.233118"
       width="169.68214"
       height="38.845635"
       id="rect1" />
    <marker
       style="overflow:visible"
       id="RoundedArrow-2"
       refX="0"
       refY="0"
       orient="auto-start-reverse"
       inkscape:stockid="Rounded arrow"
       markerWidth="1"
       markerHeight="1"
       viewBox="0 0 1 1"
       inkscape:isstock="true"
       inkscape:collect="always"
       preserveAspectRatio="xMidYMid">
      <path
         transform="scale(0.7)"
         d="m -0.21114562,-4.1055728 6.42229122,3.21114561 a 1,1 90 0 1 0,1.78885438 L -0.21114562,4.1055728 A 1.236068,1.236068 31.717474 0 1 -2,3 v -6 a 1.236068,1.236068 148.28253 0 1 1.78885438,-1.1055728 z"
         style="fill:context-stroke;fill-rule:evenodd;stroke:none"
         id="path8-6" />
    </marker>
    <marker
       style="overflow:visible"
       id="RoundedArrow-20"
       refX="0"
       refY="0"
       orient="auto-start-reverse"
       inkscape:stockid="Rounded arrow"
       markerWidth="1"
       markerHeight="1"
       viewBox="0 0 1 1"
       inkscape:isstock="true"
       inkscape:collect="always"
       preserveAspectRatio="xMidYMid">
      <path
         transform="scale(0.7)"
         d="m -0.21114562,-4.1055728 6.42229122,3.21114561 a 1,1 90 0 1 0,1.78885438 L -0.21114562,4.1055728 A 1.236068,1.236068 31.717474 0 1 -2,3 v -6 a 1.236068,1.236068 148.28253 0 1 1.78885438,-1.1055728 z"
         style="fill:context-stroke;fill-rule:evenodd;stroke:none"
         id="path8-2" />
    </marker>
    <marker
       style="overflow:visible"
       id="RoundedArrow-20-9"
       refX="0"
       refY="0"
       orient="auto-start-reverse"
       inkscape:stockid="Rounded arrow"
       markerWidth="1"
       markerHeight="1"
       viewBox="0 0 1 1"
       inkscape:isstock="true"
       inkscape:collect="always"
       preserveAspectRatio="xMidYMid">
      <path
         transform="scale(0.7)"
         d="m -0.21114562,-4.1055728 6.42229122,3.21114561 a 1,1 90 0 1 0,1.78885438 L -0.21114562,4.1055728 A 1.236068,1.236068 31.717474 0 1 -2,3 v -6 a 1.236068,1.236068 148.28253 0 1 1.78885438,-1.1055728 z"
         style="fill:context-stroke;fill-rule:evenodd;stroke:none"
         id="path8-2-4" />
    </marker>
    <marker
       style="overflow:visible"
       id="RoundedArrow-20-0"
       refX="0"
       refY="0"
       orient="auto-start-reverse"
       inkscape:stockid="Rounded arrow"
       markerWidth="1"
       markerHeight="1"
       viewBox="0 0 1 1"
       inkscape:isstock="true"
       inkscape:collect="always"
       preserveAspectRatio="xMidYMid">
      <path
         transform="scale(0.7)"
         d="m -0.21114562,-4.1055728 6.42229122,3.21114561 a 1,1 90 0 1 0,1.78885438 L -0.21114562,4.1055728 A 1.236068,1.236068 31.717474 0 1 -2,3 v -6 a 1.236068,1.236068 148.28253 0 1 1.78885438,-1.1055728 z"
         style="fill:context-stroke;fill-rule:evenodd;stroke:none"
         id="path8-2-3" />
    </marker>
    <marker
       style="overflow:visible"
       id="RoundedArrow-20-9-6"
       refX="0"
       refY="0"
       orient="auto-start-reverse"
       inkscape:stockid="Rounded arrow"
       markerWidth="1"
       markerHeight="1"
       viewBox="0 0 1 1"
       inkscape:isstock="true"
       inkscape:collect="always"
       preserveAspectRatio="xMidYMid">
      <path
         transform="scale(0.7)"
         d="m -0.21114562,-4.1055728 6.42229122,3.21114561 a 1,1 90 0 1 0,1.78885438 L -0.21114562,4.1055728 A 1.236068,1.236068 31.717474 0 1 -2,3 v -6 a 1.236068,1.236068 148.28253 0 1 1.78885438,-1.1055728 z"
         style="fill:context-stroke;fill-rule:evenodd;stroke:none"
         id="path8-2-4-1" />
    </marker>
    <rect
       x="173.77153"
       y="394.81113"
       width="53.57222"
       height="38.324924"
       id="rect7-7" />
    <rect
       x="229.26303"
       y="409.43097"
       width="65.174706"
       height="31.771652"
       id="rect8-3" />
    <marker
       style="overflow:visible"
       id="RoundedArrow-20-4"
       refX="0"
       refY="0"
       orient="auto-start-reverse"
       inkscape:stockid="Rounded arrow"
       markerWidth="1"
       markerHeight="1"
       viewBox="0 0 1 1"
       inkscape:isstock="true"
       inkscape:collect="always"
       preserveAspectRatio="xMidYMid">
      <path
         transform="scale(0.7)"
         d="m -0.21114562,-4.1055728 6.42229122,3.21114561 a 1,1 90 0 1 0,1.78885438 L -0.21114562,4.1055728 A 1.236068,1.236068 31.717474 0 1 -2,3 v -6 a 1.236068,1.236068 148.28253 0 1 1.78885438,-1.1055728 z"
         style="fill:context-stroke;fill-rule:evenodd;stroke:none"
         id="path8-2-7" />
    </marker>
    <rect
       x="173.77153"
       y="394.81113"
       width="53.57222"
       height="38.324924"
       id="rect7-4" />
    <marker
       style="overflow:visible"
       id="RoundedArrow-20-8"
       refX="0"
       refY="0"
       orient="auto-start-reverse"
       inkscape:stockid="Rounded arrow"
       markerWidth="1"
       markerHeight="1"
       viewBox="0 0 1 1"
       inkscape:isstock="true"
       inkscape:collect="always"
       preserveAspectRatio="xMidYMid">
      <path
         transform="scale(0.7)"
         d="m -0.21114562,-4.1055728 6.42229122,3.21114561 a 1,1 90 0 1 0,1.78885438 L -0.21114562,4.1055728 A 1.236068,1.236068 31.717474 0 1 -2,3 v -6 a 1.236068,1.236068 148.28253 0 1 1.78885438,-1.1055728 z"
         style="fill:context-stroke;fill-rule:evenodd;stroke:none"
         id="path8-2-8" />
    </marker>
    <rect
       x="173.77153"
       y="394.81113"
       width="53.57222"
       height="38.324924"
       id="rect7-43" />
    <rect
       x="182.83508"
       y="433.72293"
       width="165.09576"
       height="73.265251"
       id="rect9-8" />
    <marker
       style="overflow:visible"
       id="RoundedArrow-5"
       refX="0"
       refY="0"
       orient="auto-start-reverse"
       inkscape:stockid="Rounded arrow"
       markerWidth="1"
       markerHeight="1"
       viewBox="0 0 1 1"
       inkscape:isstock="true"
       inkscape:collect="always"
       preserveAspectRatio="xMidYMid">
      <path
         transform="scale(0.7)"
         d="m -0.21114562,-4.1055728 6.42229122,3.21114561 a 1,1 90 0 1 0,1.78885438 L -0.21114562,4.1055728 A 1.236068,1.236068 31.717474 0 1 -2,3 v -6 a 1.236068,1.236068 148.28253 0 1 1.78885438,-1.1055728 z"
         style="fill:context-stroke;fill-rule:evenodd;stroke:none"
         id="path8-0" />
    </marker>
    <marker
       style="overflow:visible"
       id="RoundedArrow-26"
       refX="0"
       refY="0"
       orient="auto-start-reverse"
       inkscape:stockid="Rounded arrow"
       markerWidth="1"
       markerHeight="1"
       viewBox="0 0 1 1"
       inkscape:isstock="true"
       inkscape:collect="always"
       preserveAspectRatio="xMidYMid">
      <path
         transform="scale(0.7)"
         d="m -0.21114562,-4.1055728 6.42229122,3.21114561 a 1,1 90 0 1 0,1.78885438 L -0.21114562,4.1055728 A 1.236068,1.236068 31.717474 0 1 -2,3 v -6 a 1.236068,1.236068 148.28253 0 1 1.78885438,-1.1055728 z"
         style="fill:context-stroke;fill-rule:evenodd;stroke:none"
         id="path8-1" />
    </marker>
    <rect
       x="347.78296"
       y="105.41338"
       width="149.87819"
       height="56.50098"
       id="rect11-9" />
    <marker
       style="overflow:visible"
       id="RoundedArrow-26-7"
       refX="0"
       refY="0"
       orient="auto-start-reverse"
       inkscape:stockid="Rounded arrow"
       markerWidth="1"
       markerHeight="1"
       viewBox="0 0 1 1"
       inkscape:isstock="true"
       inkscape:collect="always"
       preserveAspectRatio="xMidYMid">
      <path
         transform="scale(0.7)"
         d="m -0.21114562,-4.1055728 6.42229122,3.21114561 a 1,1 90 0 1 0,1.78885438 L -0.21114562,4.1055728 A 1.236068,1.236068 31.717474 0 1 -2,3 v -6 a 1.236068,1.236068 148.28253 0 1 1.78885438,-1.1055728 z"
         style="fill:context-stroke;fill-rule:evenodd;stroke:none"
         id="path8-1-7" />
    </marker>
  </defs>
  <g
     inkscape:label="Layer 1"
     inkscape:groupmode="layer"
     id="layer1">
    <rect
       style="fill:#ffffff;stroke:#ffffff;stroke-width:0.264582;stroke-linejoin:bevel"
       id="rect13"
       width="110.63965"
       height="115.02734"
       x="17.567383"
       y="28.60742"
       inkscape:export-filename="myPartG_transforms.svg"
       inkscape:export-xdpi="96"
       inkscape:export-ydpi="96" />
    <text
       xml:space="preserve"
       transform="scale(0.26458333)"
       id="text1"
       style="font-size:14.6667px;line-height:1.25;font-family:sans-serif;white-space:pre;shape-inside:url(#rect1)"><tspan
         x="19.652344"
         y="30.209014"
         id="tspan12">myPartG.svg</tspan></text>
    <path
       style="fill:none;stroke:#000000;stroke-width:0.264583px;stroke-linecap:butt;stroke-linejoin:miter;stroke-opacity:1"
       d="m 42.054612,85.533178 4.673041,17.600062 h -9.346081 z"
       id="path2" />
    <path
       style="fill:none;stroke:#cccccc;stroke-width:0.264583px;stroke-linecap:butt;stroke-linejoin:miter;stroke-opacity:1"
       d="M 37.381571,103.13324 V 113.9768"
       id="path3" />
    <path
       style="fill:none;stroke:#cccccc;stroke-width:0.264583px;stroke-linecap:butt;stroke-linejoin:miter;stroke-opacity:1"
       d="M 46.727653,103.13324 V 113.9768"
       id="path3-2" />
    <path
       style="fill:none;stroke:#cccccc;stroke-width:0.264583px;stroke-linecap:butt;stroke-linejoin:miter;stroke-opacity:1"
       d="M 26.405711,103.26553 H 37.24928"
       id="path3-7" />
    <path
       style="fill:none;stroke:#cccccc;stroke-width:0.264583px;stroke-linecap:butt;stroke-linejoin:miter;stroke-opacity:1"
       d="M 26.40571,85.533178 H 42.054612"
       id="path3-6" />
    <path
       style="fill:none;stroke:#000000;stroke-width:0.264583px;stroke-linecap:butt;stroke-linejoin:miter;stroke-opacity:1;marker-start:url(#RoundedArrow);marker-end:url(#RoundedArrow)"
       d="m 38.766597,113.9768 h 6.919151"
       id="path4" />
    <path
       style="fill:none;stroke:#000000;stroke-width:0.264583px;stroke-linecap:butt;stroke-linejoin:miter;stroke-opacity:1;marker-start:url(#RoundedArrow-2);marker-end:url(#RoundedArrow-2)"
       d="M 26.405711,101.82076 V 86.693742"
       id="path4-8" />
    <text
       xml:space="preserve"
       transform="matrix(0.26458333,0,0,0.26458333,10.448208,15.161429)"
       id="text4"
       style="font-size:14.6667px;line-height:1.25;font-family:sans-serif;white-space:pre;shape-inside:url(#rect4)"><tspan
         x="113.00781"
         y="391.79886"
         id="tspan13">A</tspan></text>
    <text
       xml:space="preserve"
       transform="matrix(0.26458333,0,0,0.26458333,12.46682,-5.3498763)"
       id="text5"
       style="font-size:14.6667px;line-height:1.25;font-family:sans-serif;white-space:pre;shape-inside:url(#rect5)"><tspan
         x="40.369141"
         y="379.1348"
         id="tspan14">B</tspan></text>
    <text
       xml:space="preserve"
       transform="matrix(0.26458333,0,0,0.26458333,5.126953,17.097656)"
       id="text6"
       style="font-size:14.6667px;line-height:1.25;font-family:sans-serif;text-align:center;white-space:pre;shape-inside:url(#rect6)"
       x="29.125717"
       y="0"><tspan
         x="67.664318"
         y="185.89065"
         id="tspan15">rounded
</tspan><tspan
         x="93.026681"
         y="204.22403"
         id="tspan16">R</tspan></text>
    <path
       style="fill:none;stroke:#000000;stroke-width:0.264583px;stroke-linecap:butt;stroke-linejoin:miter;stroke-opacity:1;marker-end:url(#RoundedArrow)"
       d="m 32.544432,71.374508 8.261231,12.36963"
       id="path6" />
    <path
       style="fill:none;stroke:#000000;stroke-width:0.264582px;stroke-linecap:butt;stroke-linejoin:miter;stroke-opacity:1;marker-start:url(#RoundedArrow-20);marker-end:url(#RoundedArrow-20)"
       d="M 48.191213,113.9768 H 61.600651"
       id="path4-7" />
    <path
       style="fill:none;stroke:#cccccc;stroke-width:0.264583px;stroke-linecap:butt;stroke-linejoin:miter;stroke-opacity:1"
       d="M 62.985673,103.13324 V 113.9768"
       id="path3-2-2" />
    <path
       style="fill:none;stroke:#000000;stroke-width:0.264583px;stroke-linecap:butt;stroke-linejoin:miter;stroke-opacity:1"
       d="m 69.927472,77.188764 6.9418,25.944476 H 62.985673 Z"
       id="path2-3" />
    <text
       xml:space="preserve"
       transform="matrix(0.26458333,0,0,0.26458333,7.3071287,10.929302)"
       id="text7"
       style="font-size:14.6667px;line-height:1.25;font-family:sans-serif;white-space:pre;shape-inside:url(#rect7)"><tspan
         x="173.77148"
         y="407.78714"
         id="tspan17">C</tspan></text>
    <path
       style="fill:none;stroke:#cccccc;stroke-width:0.264583px;stroke-linecap:butt;stroke-linejoin:miter;stroke-opacity:1"
       d="M 76.869272,103.13324 V 113.9768"
       id="path3-2-2-9" />
    <path
       style="fill:none;stroke:#000000;stroke-width:0.264582px;stroke-linecap:butt;stroke-linejoin:miter;stroke-opacity:1;marker-start:url(#RoundedArrow-20-9);marker-end:url(#RoundedArrow-20-9)"
       d="M 64.210802,113.9768 H 75.908725"
       id="path4-7-8" />
    <text
       xml:space="preserve"
       transform="matrix(0.26458333,0,0,0.26458333,3.1780272,7.0608037)"
       id="text8"
       style="font-size:14.6667px;line-height:1.25;font-family:sans-serif;white-space:pre;shape-inside:url(#rect8)"><tspan
         x="229.26367"
         y="422.40823"
         id="tspan18">SF1*A</tspan></text>
    <path
       style="fill:none;stroke:#000000;stroke-width:0.264582px;stroke-linecap:butt;stroke-linejoin:miter;stroke-opacity:1;marker-start:url(#RoundedArrow-20-0);marker-end:url(#RoundedArrow-20-0)"
       d="M 78.414186,113.9768 H 91.823624"
       id="path4-7-2" />
    <path
       style="fill:none;stroke:#cccccc;stroke-width:0.264583px;stroke-linecap:butt;stroke-linejoin:miter;stroke-opacity:1"
       d="M 93.208646,103.13324 V 113.9768"
       id="path3-2-2-0" />
    <path
       style="fill:none;stroke:#000000;stroke-width:0.264583px;stroke-linecap:butt;stroke-linejoin:miter;stroke-opacity:1"
       d="m 100.15044,77.188765 6.9418,25.944475 H 93.208646 Z"
       id="path2-3-6" />
    <path
       style="fill:none;stroke:#cccccc;stroke-width:0.264583px;stroke-linecap:butt;stroke-linejoin:miter;stroke-opacity:1"
       d="M 107.09224,103.13324 V 113.9768"
       id="path3-2-2-9-1" />
    <path
       style="fill:none;stroke:#000000;stroke-width:0.264582px;stroke-linecap:butt;stroke-linejoin:miter;stroke-opacity:1;marker-start:url(#RoundedArrow-20-9-6);marker-end:url(#RoundedArrow-20-9-6)"
       d="M 94.433775,113.9768 H 106.13169"
       id="path4-7-8-5" />
    <text
       xml:space="preserve"
       transform="matrix(0.26458333,0,0,0.26458333,38.923964,10.929301)"
       id="text7-5"
       style="font-size:14.6667px;line-height:1.25;font-family:sans-serif;white-space:pre;shape-inside:url(#rect7-7);display:inline"><tspan
         x="173.77148"
         y="407.78714"
         id="tspan19">C</tspan></text>
    <text
       xml:space="preserve"
       transform="matrix(0.26458333,0,0,0.26458333,33.622679,7.0608037)"
       id="text8-4"
       style="font-size:14.6667px;line-height:1.25;font-family:sans-serif;white-space:pre;shape-inside:url(#rect8-3);display:inline"><tspan
         x="229.26367"
         y="422.40823"
         id="tspan20">SF1*A</tspan></text>
    <path
       style="fill:none;stroke:#000000;stroke-width:0.264582px;stroke-linecap:butt;stroke-linejoin:miter;stroke-opacity:1;marker-start:url(#RoundedArrow-20-4);marker-end:url(#RoundedArrow-20-4)"
       d="M 22.587111,113.9768 H 35.996549"
       id="path4-7-3" />
    <text
       xml:space="preserve"
       transform="matrix(0.26458333,0,0,0.26458333,-18.296973,10.929299)"
       id="text7-0"
       style="font-size:14.6667px;line-height:1.25;font-family:sans-serif;white-space:pre;shape-inside:url(#rect7-4);display:inline"><tspan
         x="173.77148"
         y="407.78714"
         id="tspan21">C</tspan></text>
    <path
       style="fill:none;stroke:#000000;stroke-width:0.264582px;stroke-linecap:butt;stroke-linejoin:miter;stroke-opacity:1;marker-start:url(#RoundedArrow-20-8);marker-end:url(#RoundedArrow-20-8)"
       d="m 108.63715,113.9768 h 13.40944"
       id="path4-7-4" />
    <text
       xml:space="preserve"
       transform="matrix(0.26458333,0,0,0.26458333,67.753067,10.929302)"
       id="text7-9"
       style="font-size:14.6667px;line-height:1.25;font-family:sans-serif;white-space:pre;shape-inside:url(#rect7-43);display:inline"><tspan
         x="173.77148"
         y="407.78714"
         id="tspan22">C</tspan></text>
    <text
       xml:space="preserve"
       transform="matrix(0.26458333,0,0,0.26458333,-10.585588,12.647461)"
       id="text9"
       style="font-size:14.6667px;line-height:1.25;font-family:sans-serif;text-align:center;white-space:pre;shape-inside:url(#rect9)"
       x="18.10779"
       y="0"><tspan
         x="246.48824"
         y="446.69925"
         id="tspan23">scale
</tspan><tspan
         x="225.68773"
         y="465.03262"
         id="tspan24">factor: SF1
</tspan><tspan
         x="201.58221"
         y="483.366"
         id="tspan25">corner not scaled</tspan></text>
    <text
       xml:space="preserve"
       transform="matrix(0.26458333,0,0,0.26458333,24.02605,13.095703)"
       id="text9-2"
       style="font-size:14.6667px;line-height:1.25;font-family:sans-serif;text-align:center;white-space:pre;shape-inside:url(#rect9-8);display:inline"
       x="18.10779"
       y="0"><tspan
         x="246.48824"
         y="446.69925"
         id="tspan26">scale
</tspan><tspan
         x="225.68773"
         y="465.03262"
         id="tspan27">factor: SF1
</tspan><tspan
         x="215.92306"
         y="483.366"
         id="tspan28">corner scaled</tspan></text>
    <path
       style="fill:none;stroke:#000000;stroke-width:0.264583px;stroke-linecap:butt;stroke-linejoin:miter;stroke-opacity:1;marker-end:url(#RoundedArrow)"
       d="m 60.412108,126.06933 c 0,0 -2.784418,-11.84989 -3.277346,-17.89355 -0.256168,-3.14082 -1.399752,-6.72191 0.173829,-9.452151 0.809412,-1.404369 4.16211,-2.514647 4.16211,-2.514647"
       id="path9"
       sodipodi:nodetypes="caac" />
    <path
       style="fill:none;stroke:#000000;stroke-width:0.264583px;stroke-linecap:butt;stroke-linejoin:miter;stroke-opacity:1;marker-end:url(#RoundedArrow-5)"
       d="m 91.109972,127.97531 c 0,0 -2.78442,-11.84988 -3.27735,-17.89355 -0.25617,-3.14082 -1.39975,-6.72191 0.17383,-9.45215 0.80941,-1.404368 4.16211,-2.514646 4.16211,-2.514646"
       id="path9-8"
       sodipodi:nodetypes="caac" />
    <text
       xml:space="preserve"
       transform="scale(0.26458333)"
       id="text10"
       style="line-height:1.25;font-family:sans-serif;font-size:14.66666667px;white-space:pre;shape-inside:url(#rect10)" />
    <path
       style="fill:none;stroke:#000000;stroke-width:0.264583px;stroke-linecap:butt;stroke-linejoin:miter;stroke-opacity:1"
       d="M 65.304555,51.074341 58.14773,67.818869 50.784139,62.063284 Z"
       id="path2-2" />
    <text
       xml:space="preserve"
       transform="matrix(0.26458333,0,0,0.26458333,-53.014647,3.0498047)"
       id="text11"
       style="font-size:14.6667px;line-height:1.25;font-family:sans-serif;white-space:pre;shape-inside:url(#rect11)"><tspan
         x="347.7832"
         y="118.39065"
         id="tspan29">rotate
</tspan><tspan
         x="347.7832"
         y="136.72403"
         id="tspan30">angle: Z1</tspan></text>
    <path
       style="fill:none;stroke:#000000;stroke-width:0.264583px;stroke-linecap:butt;stroke-linejoin:miter;stroke-opacity:1;marker-end:url(#RoundedArrow-26)"
       d="m 47.528764,41.713316 8.261231,12.36963"
       id="path6-6" />
    <rect
       style="fill:none;stroke:#1a1a1a;stroke-width:0.264583;stroke-linejoin:bevel"
       id="rect12"
       width="101.70036"
       height="63.092522"
       x="21.466673"
       y="46.272457" />
    <path
       style="fill:none;stroke:#000000;stroke-width:0.264583px;stroke-linecap:butt;stroke-linejoin:miter;stroke-opacity:1"
       d="m 79.062897,51.074341 7.156826,16.744528 7.363588,-5.755585 z"
       id="path2-2-4" />
    <text
       xml:space="preserve"
       transform="matrix(0.26458333,0,0,0.26458333,-0.1407464,4.1255395)"
       id="text11-7"
       style="font-size:14.6667px;line-height:1.25;font-family:sans-serif;white-space:pre;shape-inside:url(#rect11-9);display:inline"><tspan
         x="347.7832"
         y="118.39065"
         id="tspan31">rotate
</tspan><tspan
         x="347.7832"
         y="136.72403"
         id="tspan32">angle: -Z1</tspan></text>
    <path
       style="fill:none;stroke:#000000;stroke-width:0.264583px;stroke-linecap:butt;stroke-linejoin:miter;stroke-opacity:1;marker-end:url(#RoundedArrow-26-7)"
       d="m 96.534489,41.926007 -8.261236,12.36963"
       id="path6-6-7" />
  </g>
</svg>
