<?xml version="1.0" encoding="UTF-8" standalone="no"?>
<!-- Created with Inkscape (http://www.inkscape.org/) -->

<svg
   width="419.16559"
   height="435.74908"
   viewBox="0 0 110.90423 115.29195"
   version="1.1"
   id="svg1"
   inkscape:version="1.3.2 (1:1.3.2+202311252150+091e20ef0f)"
   sodipodi:docname="myPartJ.svg"
   xmlns:inkscape="http://www.inkscape.org/namespaces/inkscape"
   xmlns:sodipodi="http://sodipodi.sourceforge.net/DTD/sodipodi-0.dtd"
   xmlns="http://www.w3.org/2000/svg"
   xmlns:svg="http://www.w3.org/2000/svg">
  <sodipodi:namedview
     id="namedview1"
     pagecolor="#ffffff"
     bordercolor="#666666"
     borderopacity="1.0"
     inkscape:showpageshadow="2"
     inkscape:pageopacity="0.0"
     inkscape:pagecheckerboard="0"
     inkscape:deskcolor="#d1d1d1"
     inkscape:document-units="px"
     inkscape:zoom="1.4967094"
     inkscape:cx="244.53645"
     inkscape:cy="869.24024"
     inkscape:window-width="1370"
     inkscape:window-height="836"
     inkscape:window-x="0"
     inkscape:window-y="0"
     inkscape:window-maximized="1"
     inkscape:current-layer="layer1" />
  <defs
     id="defs1">
    <marker
       style="overflow:visible"
       id="RoundedArrow-6"
       refX="0"
       refY="0"
       orient="auto-start-reverse"
       inkscape:stockid="Rounded arrow"
       markerWidth="1"
       markerHeight="1"
       viewBox="0 0 1 1"
       inkscape:isstock="true"
       inkscape:collect="always"
       preserveAspectRatio="xMidYMid">
      <path
         transform="scale(0.7)"
         d="m -0.21114562,-4.1055728 6.42229122,3.21114561 a 1,1 90 0 1 0,1.78885438 L -0.21114562,4.1055728 A 1.236068,1.236068 31.717474 0 1 -2,3 v -6 a 1.236068,1.236068 148.28253 0 1 1.78885438,-1.1055728 z"
         style="fill:context-stroke;fill-rule:evenodd;stroke:none"
         id="path8-29" />
    </marker>
    <marker
       style="overflow:visible"
       id="RoundedArrow-2"
       refX="0"
       refY="0"
       orient="auto-start-reverse"
       inkscape:stockid="Rounded arrow"
       markerWidth="1"
       markerHeight="1"
       viewBox="0 0 1 1"
       inkscape:isstock="true"
       inkscape:collect="always"
       preserveAspectRatio="xMidYMid">
      <path
         transform="scale(0.7)"
         d="m -0.21114562,-4.1055728 6.42229122,3.21114561 a 1,1 90 0 1 0,1.78885438 L -0.21114562,4.1055728 A 1.236068,1.236068 31.717474 0 1 -2,3 v -6 a 1.236068,1.236068 148.28253 0 1 1.78885438,-1.1055728 z"
         style="fill:context-stroke;fill-rule:evenodd;stroke:none"
         id="path8-6-1" />
    </marker>
    <rect
       x="113.00702"
       y="378.82321"
       width="78.251091"
       height="51.868996"
       id="rect4-2" />
    <rect
       x="40.369812"
       y="366.15741"
       width="32.861153"
       height="38.55072"
       id="rect5" />
    <rect
       x="32.340057"
       y="172.91338"
       width="131.56374"
       height="47.75898"
       id="rect6" />
    <marker
       style="overflow:visible"
       id="RoundedArrow-20"
       refX="0"
       refY="0"
       orient="auto-start-reverse"
       inkscape:stockid="Rounded arrow"
       markerWidth="1"
       markerHeight="1"
       viewBox="0 0 1 1"
       inkscape:isstock="true"
       inkscape:collect="always"
       preserveAspectRatio="xMidYMid">
      <path
         transform="scale(0.7)"
         d="m -0.21114562,-4.1055728 6.42229122,3.21114561 a 1,1 90 0 1 0,1.78885438 L -0.21114562,4.1055728 A 1.236068,1.236068 31.717474 0 1 -2,3 v -6 a 1.236068,1.236068 148.28253 0 1 1.78885438,-1.1055728 z"
         style="fill:context-stroke;fill-rule:evenodd;stroke:none"
         id="path8-2-9" />
    </marker>
    <rect
       x="173.77153"
       y="394.81113"
       width="53.57222"
       height="38.324924"
       id="rect7-6" />
    <marker
       style="overflow:visible"
       id="RoundedArrow-20-9"
       refX="0"
       refY="0"
       orient="auto-start-reverse"
       inkscape:stockid="Rounded arrow"
       markerWidth="1"
       markerHeight="1"
       viewBox="0 0 1 1"
       inkscape:isstock="true"
       inkscape:collect="always"
       preserveAspectRatio="xMidYMid">
      <path
         transform="scale(0.7)"
         d="m -0.21114562,-4.1055728 6.42229122,3.21114561 a 1,1 90 0 1 0,1.78885438 L -0.21114562,4.1055728 A 1.236068,1.236068 31.717474 0 1 -2,3 v -6 a 1.236068,1.236068 148.28253 0 1 1.78885438,-1.1055728 z"
         style="fill:context-stroke;fill-rule:evenodd;stroke:none"
         id="path8-2-4-0" />
    </marker>
    <rect
       x="229.26303"
       y="409.43097"
       width="65.174706"
       height="31.771652"
       id="rect8-2" />
    <marker
       style="overflow:visible"
       id="RoundedArrow-20-0"
       refX="0"
       refY="0"
       orient="auto-start-reverse"
       inkscape:stockid="Rounded arrow"
       markerWidth="1"
       markerHeight="1"
       viewBox="0 0 1 1"
       inkscape:isstock="true"
       inkscape:collect="always"
       preserveAspectRatio="xMidYMid">
      <path
         transform="scale(0.7)"
         d="m -0.21114562,-4.1055728 6.42229122,3.21114561 a 1,1 90 0 1 0,1.78885438 L -0.21114562,4.1055728 A 1.236068,1.236068 31.717474 0 1 -2,3 v -6 a 1.236068,1.236068 148.28253 0 1 1.78885438,-1.1055728 z"
         style="fill:context-stroke;fill-rule:evenodd;stroke:none"
         id="path8-2-3" />
    </marker>
    <marker
       style="overflow:visible"
       id="RoundedArrow-20-9-6"
       refX="0"
       refY="0"
       orient="auto-start-reverse"
       inkscape:stockid="Rounded arrow"
       markerWidth="1"
       markerHeight="1"
       viewBox="0 0 1 1"
       inkscape:isstock="true"
       inkscape:collect="always"
       preserveAspectRatio="xMidYMid">
      <path
         transform="scale(0.7)"
         d="m -0.21114562,-4.1055728 6.42229122,3.21114561 a 1,1 90 0 1 0,1.78885438 L -0.21114562,4.1055728 A 1.236068,1.236068 31.717474 0 1 -2,3 v -6 a 1.236068,1.236068 148.28253 0 1 1.78885438,-1.1055728 z"
         style="fill:context-stroke;fill-rule:evenodd;stroke:none"
         id="path8-2-4-1" />
    </marker>
    <rect
       x="173.77153"
       y="394.81113"
       width="53.57222"
       height="38.324924"
       id="rect7-7" />
    <rect
       x="229.26303"
       y="409.43097"
       width="65.174706"
       height="31.771652"
       id="rect8-3" />
    <marker
       style="overflow:visible"
       id="RoundedArrow-20-4"
       refX="0"
       refY="0"
       orient="auto-start-reverse"
       inkscape:stockid="Rounded arrow"
       markerWidth="1"
       markerHeight="1"
       viewBox="0 0 1 1"
       inkscape:isstock="true"
       inkscape:collect="always"
       preserveAspectRatio="xMidYMid">
      <path
         transform="scale(0.7)"
         d="m -0.21114562,-4.1055728 6.42229122,3.21114561 a 1,1 90 0 1 0,1.78885438 L -0.21114562,4.1055728 A 1.236068,1.236068 31.717474 0 1 -2,3 v -6 a 1.236068,1.236068 148.28253 0 1 1.78885438,-1.1055728 z"
         style="fill:context-stroke;fill-rule:evenodd;stroke:none"
         id="path8-2-7" />
    </marker>
    <rect
       x="173.77153"
       y="394.81113"
       width="53.57222"
       height="38.324924"
       id="rect7-4" />
    <marker
       style="overflow:visible"
       id="RoundedArrow-20-8"
       refX="0"
       refY="0"
       orient="auto-start-reverse"
       inkscape:stockid="Rounded arrow"
       markerWidth="1"
       markerHeight="1"
       viewBox="0 0 1 1"
       inkscape:isstock="true"
       inkscape:collect="always"
       preserveAspectRatio="xMidYMid">
      <path
         transform="scale(0.7)"
         d="m -0.21114562,-4.1055728 6.42229122,3.21114561 a 1,1 90 0 1 0,1.78885438 L -0.21114562,4.1055728 A 1.236068,1.236068 31.717474 0 1 -2,3 v -6 a 1.236068,1.236068 148.28253 0 1 1.78885438,-1.1055728 z"
         style="fill:context-stroke;fill-rule:evenodd;stroke:none"
         id="path8-2-8" />
    </marker>
    <rect
       x="173.77153"
       y="394.81113"
       width="53.57222"
       height="38.324924"
       id="rect7-43" />
    <rect
       x="182.83508"
       y="433.72293"
       width="165.09576"
       height="73.265251"
       id="rect9-2" />
    <rect
       x="182.83508"
       y="433.72293"
       width="165.09576"
       height="73.265251"
       id="rect9-8" />
    <marker
       style="overflow:visible"
       id="RoundedArrow-5"
       refX="0"
       refY="0"
       orient="auto-start-reverse"
       inkscape:stockid="Rounded arrow"
       markerWidth="1"
       markerHeight="1"
       viewBox="0 0 1 1"
       inkscape:isstock="true"
       inkscape:collect="always"
       preserveAspectRatio="xMidYMid">
      <path
         transform="scale(0.7)"
         d="m -0.21114562,-4.1055728 6.42229122,3.21114561 a 1,1 90 0 1 0,1.78885438 L -0.21114562,4.1055728 A 1.236068,1.236068 31.717474 0 1 -2,3 v -6 a 1.236068,1.236068 148.28253 0 1 1.78885438,-1.1055728 z"
         style="fill:context-stroke;fill-rule:evenodd;stroke:none"
         id="path8-0" />
    </marker>
    <rect
       x="347.78296"
       y="105.41338"
       width="149.87819"
       height="56.50098"
       id="rect11-2" />
    <marker
       style="overflow:visible"
       id="RoundedArrow-26"
       refX="0"
       refY="0"
       orient="auto-start-reverse"
       inkscape:stockid="Rounded arrow"
       markerWidth="1"
       markerHeight="1"
       viewBox="0 0 1 1"
       inkscape:isstock="true"
       inkscape:collect="always"
       preserveAspectRatio="xMidYMid">
      <path
         transform="scale(0.7)"
         d="m -0.21114562,-4.1055728 6.42229122,3.21114561 a 1,1 90 0 1 0,1.78885438 L -0.21114562,4.1055728 A 1.236068,1.236068 31.717474 0 1 -2,3 v -6 a 1.236068,1.236068 148.28253 0 1 1.78885438,-1.1055728 z"
         style="fill:context-stroke;fill-rule:evenodd;stroke:none"
         id="path8-1" />
    </marker>
    <rect
       x="347.78296"
       y="105.41338"
       width="149.87819"
       height="56.50098"
       id="rect11-9" />
    <marker
       style="overflow:visible"
       id="RoundedArrow-26-7"
       refX="0"
       refY="0"
       orient="auto-start-reverse"
       inkscape:stockid="Rounded arrow"
       markerWidth="1"
       markerHeight="1"
       viewBox="0 0 1 1"
       inkscape:isstock="true"
       inkscape:collect="always"
       preserveAspectRatio="xMidYMid">
      <path
         transform="scale(0.7)"
         d="m -0.21114562,-4.1055728 6.42229122,3.21114561 a 1,1 90 0 1 0,1.78885438 L -0.21114562,4.1055728 A 1.236068,1.236068 31.717474 0 1 -2,3 v -6 a 1.236068,1.236068 148.28253 0 1 1.78885438,-1.1055728 z"
         style="fill:context-stroke;fill-rule:evenodd;stroke:none"
         id="path8-1-7" />
    </marker>
  </defs>
  <g
     inkscape:label="Layer 1"
     inkscape:groupmode="layer"
     id="layer1"
     transform="translate(-28.491137,-155.66068)">
    <rect
       style="fill:#ffffff;stroke:#ffffff;stroke-width:0.264582;stroke-linejoin:bevel"
       id="rect13-7"
       width="110.63965"
       height="115.02734"
       x="28.623428"
       y="155.79297"
       inkscape:export-filename="myPartI_face2.svg"
       inkscape:export-xdpi="96"
       inkscape:export-ydpi="96" />
    <path
       style="fill:none;stroke:#000000;stroke-width:0.264583px;stroke-linecap:butt;stroke-linejoin:miter;stroke-opacity:1"
       d="m 53.11067,212.71872 4.67304,17.60006 h -9.34608 z"
       id="path12-5" />
    <path
       style="fill:none;stroke:#cccccc;stroke-width:0.264583px;stroke-linecap:butt;stroke-linejoin:miter;stroke-opacity:1"
       d="m 48.43762,230.31878 v 10.84356"
       id="path13" />
    <path
       style="fill:none;stroke:#cccccc;stroke-width:0.264583px;stroke-linecap:butt;stroke-linejoin:miter;stroke-opacity:1"
       d="m 57.78371,230.31878 v 10.84356"
       id="path3-2" />
    <path
       style="fill:none;stroke:#cccccc;stroke-width:0.264583px;stroke-linecap:butt;stroke-linejoin:miter;stroke-opacity:1"
       d="M 37.46176,230.45107 H 48.30533"
       id="path3-7" />
    <path
       style="fill:none;stroke:#cccccc;stroke-width:0.264583px;stroke-linecap:butt;stroke-linejoin:miter;stroke-opacity:1"
       d="M 37.46176,212.71872 H 53.11067"
       id="path3-6" />
    <path
       style="fill:none;stroke:#000000;stroke-width:0.264583px;stroke-linecap:butt;stroke-linejoin:miter;stroke-opacity:1;marker-start:url(#RoundedArrow-6);marker-end:url(#RoundedArrow-6)"
       d="M 49.82265,241.16234 H 56.7418"
       id="path14" />
    <path
       style="fill:none;stroke:#000000;stroke-width:0.264583px;stroke-linecap:butt;stroke-linejoin:miter;stroke-opacity:1;marker-start:url(#RoundedArrow-2);marker-end:url(#RoundedArrow-2)"
       d="M 41.695096,229.0063 V 213.87928"
       id="path4-8" />
    <text
       xml:space="preserve"
       transform="matrix(0.26458333,0,0,0.26458333,19.387592,142.34697)"
       id="text4"
       style="font-size:14.6667px;line-height:1.25;font-family:sans-serif;white-space:pre;shape-inside:url(#rect4-2);display:inline"><tspan
         x="113.00781"
         y="391.79886"
         id="tspan1">F2A</tspan></text>
    <text
       xml:space="preserve"
       transform="matrix(0.26458333,0,0,0.26458333,23.52287,121.83566)"
       id="text5"
       style="font-size:14.6667px;line-height:1.25;font-family:sans-serif;white-space:pre;shape-inside:url(#rect5);display:inline"><tspan
         x="40.369141"
         y="379.1348"
         id="tspan2">F2B</tspan></text>
    <text
       xml:space="preserve"
       transform="matrix(0.26458333,0,0,0.26458333,16.18301,144.2832)"
       id="text6"
       style="font-size:14.6667px;line-height:1.25;font-family:sans-serif;text-align:center;white-space:pre;shape-inside:url(#rect6);display:inline"
       x="29.125717"
       y="0"><tspan
         x="67.664318"
         y="185.89065"
         id="tspan3">rounded
</tspan><tspan
         x="84.142872"
         y="204.22403"
         id="tspan4">F2R</tspan></text>
    <path
       style="fill:none;stroke:#000000;stroke-width:0.264583px;stroke-linecap:butt;stroke-linejoin:miter;stroke-opacity:1;marker-end:url(#RoundedArrow-6)"
       d="m 43.60049,198.56005 8.26123,12.36963"
       id="path15" />
    <path
       style="fill:none;stroke:#000000;stroke-width:0.264582px;stroke-linecap:butt;stroke-linejoin:miter;stroke-opacity:1;marker-start:url(#RoundedArrow-20);marker-end:url(#RoundedArrow-20)"
       d="M 59.24727,241.16234 H 72.6567"
       id="path4-7" />
    <path
       style="fill:none;stroke:#cccccc;stroke-width:0.264583px;stroke-linecap:butt;stroke-linejoin:miter;stroke-opacity:1"
       d="m 74.04173,230.31878 v 10.84356"
       id="path3-2-2" />
    <path
       style="fill:none;stroke:#000000;stroke-width:0.264583px;stroke-linecap:butt;stroke-linejoin:miter;stroke-opacity:1"
       d="m 80.98353,204.3743 6.9418,25.94448 h -13.8836 z"
       id="path2-3" />
    <text
       xml:space="preserve"
       transform="matrix(0.26458333,0,0,0.26458333,15.717345,136.52733)"
       id="text7-97"
       style="font-size:14.6667px;line-height:1.25;font-family:sans-serif;white-space:pre;shape-inside:url(#rect7-6);display:inline"><tspan
         x="173.77148"
         y="407.78714"
         id="tspan5">F2C</tspan></text>
    <path
       style="fill:none;stroke:#cccccc;stroke-width:0.264583px;stroke-linecap:butt;stroke-linejoin:miter;stroke-opacity:1"
       d="m 87.92533,230.31878 v 10.84356"
       id="path3-2-2-9" />
    <path
       style="fill:none;stroke:#000000;stroke-width:0.264582px;stroke-linecap:butt;stroke-linejoin:miter;stroke-opacity:1;marker-start:url(#RoundedArrow-20-9);marker-end:url(#RoundedArrow-20-9)"
       d="M 75.26686,241.16234 H 86.96478"
       id="path4-7-8" />
    <text
       xml:space="preserve"
       transform="matrix(0.26458333,0,0,0.26458333,12.117412,134.77551)"
       id="text8-6"
       style="font-size:14.6667px;line-height:1.25;font-family:sans-serif;white-space:pre;shape-inside:url(#rect8-2);display:inline"><tspan
         x="229.26367"
         y="422.40823"
         id="tspan6">F2SF1*A</tspan></text>
    <path
       style="fill:none;stroke:#000000;stroke-width:0.264582px;stroke-linecap:butt;stroke-linejoin:miter;stroke-opacity:1;marker-start:url(#RoundedArrow-20-0);marker-end:url(#RoundedArrow-20-0)"
       d="m 89.47024,241.16234 h 13.40944"
       id="path4-7-2" />
    <path
       style="fill:none;stroke:#cccccc;stroke-width:0.264583px;stroke-linecap:butt;stroke-linejoin:miter;stroke-opacity:1"
       d="m 104.2647,230.31878 v 10.84356"
       id="path3-2-2-0" />
    <path
       style="fill:none;stroke:#000000;stroke-width:0.264583px;stroke-linecap:butt;stroke-linejoin:miter;stroke-opacity:1"
       d="m 111.20649,204.3743 6.9418,25.94448 H 104.2647 Z"
       id="path2-3-6" />
    <path
       style="fill:none;stroke:#cccccc;stroke-width:0.264583px;stroke-linecap:butt;stroke-linejoin:miter;stroke-opacity:1"
       d="m 118.14829,230.31878 v 10.84356"
       id="path3-2-2-9-1" />
    <path
       style="fill:none;stroke:#000000;stroke-width:0.264582px;stroke-linecap:butt;stroke-linejoin:miter;stroke-opacity:1;marker-start:url(#RoundedArrow-20-9-6);marker-end:url(#RoundedArrow-20-9-6)"
       d="m 105.48983,241.16234 h 11.69791"
       id="path4-7-8-5" />
    <text
       xml:space="preserve"
       transform="matrix(0.26458333,0,0,0.26458333,45.746684,136.52733)"
       id="text7-5"
       style="font-size:14.6667px;line-height:1.25;font-family:sans-serif;white-space:pre;shape-inside:url(#rect7-7);display:inline"><tspan
         x="173.77148"
         y="407.78714"
         id="tspan7">F2C</tspan></text>
    <text
       xml:space="preserve"
       transform="matrix(0.26458333,0,0,0.26458333,42.562062,135.30468)"
       id="text8-4"
       style="font-size:14.6667px;line-height:1.25;font-family:sans-serif;white-space:pre;shape-inside:url(#rect8-3);display:inline"><tspan
         x="229.26367"
         y="422.40823"
         id="tspan8">F2SF1*A</tspan></text>
    <path
       style="fill:none;stroke:#000000;stroke-width:0.264582px;stroke-linecap:butt;stroke-linejoin:miter;stroke-opacity:1;marker-start:url(#RoundedArrow-20-4);marker-end:url(#RoundedArrow-20-4)"
       d="M 33.64316,241.16234 H 47.0526"
       id="path4-7-3" />
    <text
       xml:space="preserve"
       transform="matrix(0.26458333,0,0,0.26458333,-8.82842,138.11484)"
       id="text7-0"
       style="font-size:14.6667px;line-height:1.25;font-family:sans-serif;white-space:pre;shape-inside:url(#rect7-4);display:inline"><tspan
         x="173.77148"
         y="407.78714"
         id="tspan9">F2C</tspan></text>
    <path
       style="fill:none;stroke:#000000;stroke-width:0.264582px;stroke-linecap:butt;stroke-linejoin:miter;stroke-opacity:1;marker-start:url(#RoundedArrow-20-8);marker-end:url(#RoundedArrow-20-8)"
       d="m 119.6932,241.16234 h 13.40944"
       id="path4-7-4" />
    <text
       xml:space="preserve"
       transform="matrix(0.26458333,0,0,0.26458333,76.692452,137.0565)"
       id="text7-9"
       style="font-size:14.6667px;line-height:1.25;font-family:sans-serif;white-space:pre;shape-inside:url(#rect7-43);display:inline"><tspan
         x="173.77148"
         y="407.78714"
         id="tspan10">F2C</tspan></text>
    <text
       xml:space="preserve"
       transform="matrix(0.26458333,0,0,0.26458333,0.47047005,139.833)"
       id="text9-9"
       style="font-size:14.6667px;line-height:1.25;font-family:sans-serif;text-align:center;white-space:pre;shape-inside:url(#rect9-2);display:inline"
       x="18.10779"
       y="0"><tspan
         x="246.48824"
         y="446.69925"
         id="tspan11">scale
</tspan><tspan
         x="216.80392"
         y="465.03262"
         id="tspan12">factor: F2SF1
</tspan><tspan
         x="201.58221"
         y="483.366"
         id="tspan13">corner not scaled</tspan></text>
    <text
       xml:space="preserve"
       transform="matrix(0.26458333,0,0,0.26458333,35.0821,140.28124)"
       id="text9-2"
       style="font-size:14.6667px;line-height:1.25;font-family:sans-serif;text-align:center;white-space:pre;shape-inside:url(#rect9-8);display:inline"
       x="18.10779"
       y="0"><tspan
         x="246.48824"
         y="446.69925"
         id="tspan14">scale
</tspan><tspan
         x="216.80392"
         y="465.03262"
         id="tspan15">factor: F2SF1
</tspan><tspan
         x="215.92306"
         y="483.366"
         id="tspan16">corner scaled</tspan></text>
    <path
       style="fill:none;stroke:#000000;stroke-width:0.264583px;stroke-linecap:butt;stroke-linejoin:miter;stroke-opacity:1;marker-end:url(#RoundedArrow-6)"
       d="m 71.46816,253.25487 c 0,0 -2.78442,-11.84989 -3.27734,-17.89355 -0.25617,-3.14082 -1.39976,-6.72191 0.17382,-9.45215 0.80942,-1.40437 4.16211,-2.51465 4.16211,-2.51465"
       id="path16"
       sodipodi:nodetypes="caac" />
    <path
       style="fill:none;stroke:#000000;stroke-width:0.264583px;stroke-linecap:butt;stroke-linejoin:miter;stroke-opacity:1;marker-end:url(#RoundedArrow-5)"
       d="m 102.16603,255.16085 c 0,0 -2.78442,-11.84988 -3.27735,-17.89355 -0.25617,-3.14082 -1.39975,-6.72191 0.17383,-9.45215 0.80941,-1.40437 4.16211,-2.51465 4.16211,-2.51465"
       id="path9-8"
       sodipodi:nodetypes="caac" />
    <path
       style="fill:none;stroke:#000000;stroke-width:0.264583px;stroke-linecap:butt;stroke-linejoin:miter;stroke-opacity:1"
       d="m 76.36061,178.25988 -7.15683,16.74453 -7.36359,-5.75559 z"
       id="path2-2" />
    <text
       xml:space="preserve"
       transform="matrix(0.26458333,0,0,0.26458333,-41.958594,130.23534)"
       id="text11-3"
       style="font-size:14.6667px;line-height:1.25;font-family:sans-serif;white-space:pre;shape-inside:url(#rect11-2);display:inline"><tspan
         x="347.7832"
         y="118.39065"
         id="tspan17">rotate
</tspan><tspan
         x="347.7832"
         y="136.72403"
         id="tspan18">angle: F2Z1</tspan></text>
    <path
       style="fill:none;stroke:#000000;stroke-width:0.264583px;stroke-linecap:butt;stroke-linejoin:miter;stroke-opacity:1;marker-end:url(#RoundedArrow-26)"
       d="m 58.58482,168.89886 8.26123,12.36963"
       id="path6-6-0" />
    <rect
       style="fill:none;stroke:#1a1a1a;stroke-width:0.264583;stroke-linejoin:bevel"
       id="rect12-6"
       width="101.70036"
       height="63.092522"
       x="32.52272"
       y="173.45801" />
    <path
       style="fill:none;stroke:#000000;stroke-width:0.264583px;stroke-linecap:butt;stroke-linejoin:miter;stroke-opacity:1"
       d="m 90.11895,178.25988 7.15683,16.74453 7.36358,-5.75559 z"
       id="path2-2-4" />
    <text
       xml:space="preserve"
       transform="matrix(0.26458333,0,0,0.26458333,10.91531,131.31108)"
       id="text11-7"
       style="font-size:14.6667px;line-height:1.25;font-family:sans-serif;white-space:pre;shape-inside:url(#rect11-9);display:inline"><tspan
         x="347.7832"
         y="118.39065"
         id="tspan19">rotate
</tspan><tspan
         x="347.7832"
         y="136.72403"
         id="tspan20">angle: -F2Z1</tspan></text>
    <path
       style="fill:none;stroke:#000000;stroke-width:0.264583px;stroke-linecap:butt;stroke-linejoin:miter;stroke-opacity:1;marker-end:url(#RoundedArrow-26-7)"
       d="m 107.59054,169.11155 -8.26123,12.36963"
       id="path6-6-7" />
  </g>
</svg>
