<?xml version="1.0" encoding="UTF-8" standalone="no"?>
<!-- Created with Inkscape (http://www.inkscape.org/) -->

<svg
   width="600"
   height="3000"
   viewBox="0 0 158.75 793.75"
   version="1.1"
   id="svg1"
   inkscape:version="1.3.2 (1:1.3.2+202311252150+091e20ef0f)"
   sodipodi:docname="myPartH.svg"
   inkscape:export-filename="myPartH_circle.svg"
   inkscape:export-xdpi="96"
   inkscape:export-ydpi="96"
   xmlns:inkscape="http://www.inkscape.org/namespaces/inkscape"
   xmlns:sodipodi="http://sodipodi.sourceforge.net/DTD/sodipodi-0.dtd"
   xmlns="http://www.w3.org/2000/svg"
   xmlns:svg="http://www.w3.org/2000/svg">
  <sodipodi:namedview
     id="namedview1"
     pagecolor="#ffffff"
     bordercolor="#666666"
     borderopacity="1.0"
     inkscape:showpageshadow="2"
     inkscape:pageopacity="0.0"
     inkscape:pagecheckerboard="0"
     inkscape:deskcolor="#d1d1d1"
     inkscape:document-units="px"
     inkscape:zoom="1.0583333"
     inkscape:cx="303.3071"
     inkscape:cy="634.01577"
     inkscape:window-width="1370"
     inkscape:window-height="836"
     inkscape:window-x="0"
     inkscape:window-y="0"
     inkscape:window-maximized="1"
     inkscape:current-layer="layer1" />
  <defs
     id="defs1">
    <rect
       x="467.38806"
       y="534.01312"
       width="32.797737"
       height="39.382553"
       id="rect6" />
    <rect
       x="125.87701"
       y="96.510826"
       width="69.551796"
       height="38.511318"
       id="rect13" />
    <rect
       x="248.8195"
       y="719.46478"
       width="43.595596"
       height="38.658958"
       id="rect12" />
    <marker
       style="overflow:visible"
       id="marker12"
       refX="0"
       refY="0"
       orient="auto-start-reverse"
       inkscape:stockid="Rounded arrow"
       markerWidth="1"
       markerHeight="1"
       viewBox="0 0 1 1"
       inkscape:isstock="true"
       inkscape:collect="always"
       preserveAspectRatio="xMidYMid">
      <path
         transform="scale(0.7)"
         d="m -0.21114562,-4.1055728 6.42229122,3.21114561 a 1,1 90 0 1 0,1.78885438 L -0.21114562,4.1055728 A 1.236068,1.236068 31.717474 0 1 -2,3 v -6 a 1.236068,1.236068 148.28253 0 1 1.78885438,-1.1055728 z"
         style="fill:context-stroke;fill-rule:evenodd;stroke:none"
         id="path12" />
    </marker>
    <rect
       x="243.34399"
       y="666.16205"
       width="82.160431"
       height="39.771778"
       id="rect11" />
    <rect
       x="193.33742"
       y="645.31744"
       width="35.785221"
       height="28.538385"
       id="rect10" />
    <rect
       x="284.52737"
       y="287.98016"
       width="31.915518"
       height="30.199627"
       id="rect5" />
    <rect
       x="266.63181"
       y="246.73137"
       width="38.135742"
       height="22.299721"
       id="rect4" />
    <rect
       x="245.72134"
       y="280.3501"
       width="34.265274"
       height="31.188866"
       id="rect3" />
    <marker
       style="overflow:visible"
       id="RoundedArrow"
       refX="0"
       refY="0"
       orient="auto-start-reverse"
       inkscape:stockid="Rounded arrow"
       markerWidth="1"
       markerHeight="1"
       viewBox="0 0 1 1"
       inkscape:isstock="true"
       inkscape:collect="always"
       preserveAspectRatio="xMidYMid">
      <path
         transform="scale(0.7)"
         d="m -0.21114562,-4.1055728 6.42229122,3.21114561 a 1,1 90 0 1 0,1.78885438 L -0.21114562,4.1055728 A 1.236068,1.236068 31.717474 0 1 -2,3 v -6 a 1.236068,1.236068 148.28253 0 1 1.78885438,-1.1055728 z"
         style="fill:context-stroke;fill-rule:evenodd;stroke:none"
         id="path8" />
    </marker>
    <rect
       x="7.7436023"
       y="7.2859254"
       width="204.17569"
       height="53.976379"
       id="rect1" />
    <marker
       style="overflow:visible"
       id="RoundedArrow-2"
       refX="0"
       refY="0"
       orient="auto-start-reverse"
       inkscape:stockid="Rounded arrow"
       markerWidth="1"
       markerHeight="1"
       viewBox="0 0 1 1"
       inkscape:isstock="true"
       inkscape:collect="always"
       preserveAspectRatio="xMidYMid">
      <path
         transform="scale(0.7)"
         d="m -0.21114562,-4.1055728 6.42229122,3.21114561 a 1,1 90 0 1 0,1.78885438 L -0.21114562,4.1055728 A 1.236068,1.236068 31.717474 0 1 -2,3 v -6 a 1.236068,1.236068 148.28253 0 1 1.78885438,-1.1055728 z"
         style="fill:context-stroke;fill-rule:evenodd;stroke:none"
         id="path8-6" />
    </marker>
    <marker
       style="overflow:visible"
       id="RoundedArrow-2-8"
       refX="0"
       refY="0"
       orient="auto-start-reverse"
       inkscape:stockid="Rounded arrow"
       markerWidth="1"
       markerHeight="1"
       viewBox="0 0 1 1"
       inkscape:isstock="true"
       inkscape:collect="always"
       preserveAspectRatio="xMidYMid">
      <path
         transform="scale(0.7)"
         d="m -0.21114562,-4.1055728 6.42229122,3.21114561 a 1,1 90 0 1 0,1.78885438 L -0.21114562,4.1055728 A 1.236068,1.236068 31.717474 0 1 -2,3 v -6 a 1.236068,1.236068 148.28253 0 1 1.78885438,-1.1055728 z"
         style="fill:context-stroke;fill-rule:evenodd;stroke:none"
         id="path8-6-9" />
    </marker>
    <marker
       style="overflow:visible"
       id="RoundedArrow-1"
       refX="0"
       refY="0"
       orient="auto-start-reverse"
       inkscape:stockid="Rounded arrow"
       markerWidth="1"
       markerHeight="1"
       viewBox="0 0 1 1"
       inkscape:isstock="true"
       inkscape:collect="always"
       preserveAspectRatio="xMidYMid">
      <path
         transform="scale(0.7)"
         d="m -0.21114562,-4.1055728 6.42229122,3.21114561 a 1,1 90 0 1 0,1.78885438 L -0.21114562,4.1055728 A 1.236068,1.236068 31.717474 0 1 -2,3 v -6 a 1.236068,1.236068 148.28253 0 1 1.78885438,-1.1055728 z"
         style="fill:context-stroke;fill-rule:evenodd;stroke:none"
         id="path8-0" />
    </marker>
    <marker
       style="overflow:visible"
       id="RoundedArrow-2-3"
       refX="0"
       refY="0"
       orient="auto-start-reverse"
       inkscape:stockid="Rounded arrow"
       markerWidth="1"
       markerHeight="1"
       viewBox="0 0 1 1"
       inkscape:isstock="true"
       inkscape:collect="always"
       preserveAspectRatio="xMidYMid">
      <path
         transform="scale(0.7)"
         d="m -0.21114562,-4.1055728 6.42229122,3.21114561 a 1,1 90 0 1 0,1.78885438 L -0.21114562,4.1055728 A 1.236068,1.236068 31.717474 0 1 -2,3 v -6 a 1.236068,1.236068 148.28253 0 1 1.78885438,-1.1055728 z"
         style="fill:context-stroke;fill-rule:evenodd;stroke:none"
         id="path8-6-2" />
    </marker>
    <marker
       style="overflow:visible"
       id="RoundedArrow-2-8-6"
       refX="0"
       refY="0"
       orient="auto-start-reverse"
       inkscape:stockid="Rounded arrow"
       markerWidth="1"
       markerHeight="1"
       viewBox="0 0 1 1"
       inkscape:isstock="true"
       inkscape:collect="always"
       preserveAspectRatio="xMidYMid">
      <path
         transform="scale(0.7)"
         d="m -0.21114562,-4.1055728 6.42229122,3.21114561 a 1,1 90 0 1 0,1.78885438 L -0.21114562,4.1055728 A 1.236068,1.236068 31.717474 0 1 -2,3 v -6 a 1.236068,1.236068 148.28253 0 1 1.78885438,-1.1055728 z"
         style="fill:context-stroke;fill-rule:evenodd;stroke:none"
         id="path8-6-9-1" />
    </marker>
    <rect
       x="245.72134"
       y="280.3501"
       width="34.265274"
       height="31.188866"
       id="rect3-5" />
    <rect
       x="266.63181"
       y="246.73137"
       width="38.135742"
       height="22.299721"
       id="rect4-4" />
    <rect
       x="284.52737"
       y="287.98016"
       width="31.915518"
       height="30.199627"
       id="rect5-7" />
    <marker
       style="overflow:visible"
       id="RoundedArrow-1-6"
       refX="0"
       refY="0"
       orient="auto-start-reverse"
       inkscape:stockid="Rounded arrow"
       markerWidth="1"
       markerHeight="1"
       viewBox="0 0 1 1"
       inkscape:isstock="true"
       inkscape:collect="always"
       preserveAspectRatio="xMidYMid">
      <path
         transform="scale(0.7)"
         d="m -0.21114562,-4.1055728 6.42229122,3.21114561 a 1,1 90 0 1 0,1.78885438 L -0.21114562,4.1055728 A 1.236068,1.236068 31.717474 0 1 -2,3 v -6 a 1.236068,1.236068 148.28253 0 1 1.78885438,-1.1055728 z"
         style="fill:context-stroke;fill-rule:evenodd;stroke:none"
         id="path8-0-6" />
    </marker>
    <rect
       x="243.34399"
       y="666.16205"
       width="82.160431"
       height="39.771778"
       id="rect11-2" />
    <marker
       style="overflow:visible"
       id="marker12-6"
       refX="0"
       refY="0"
       orient="auto-start-reverse"
       inkscape:stockid="Rounded arrow"
       markerWidth="1"
       markerHeight="1"
       viewBox="0 0 1 1"
       inkscape:isstock="true"
       inkscape:collect="always"
       preserveAspectRatio="xMidYMid">
      <path
         transform="scale(0.7)"
         d="m -0.21114562,-4.1055728 6.42229122,3.21114561 a 1,1 90 0 1 0,1.78885438 L -0.21114562,4.1055728 A 1.236068,1.236068 31.717474 0 1 -2,3 v -6 a 1.236068,1.236068 148.28253 0 1 1.78885438,-1.1055728 z"
         style="fill:context-stroke;fill-rule:evenodd;stroke:none"
         id="path12-1" />
    </marker>
    <marker
       style="overflow:visible"
       id="marker12-0"
       refX="0"
       refY="0"
       orient="auto-start-reverse"
       inkscape:stockid="Rounded arrow"
       markerWidth="1"
       markerHeight="1"
       viewBox="0 0 1 1"
       inkscape:isstock="true"
       inkscape:collect="always"
       preserveAspectRatio="xMidYMid">
      <path
         transform="scale(0.7)"
         d="m -0.21114562,-4.1055728 6.42229122,3.21114561 a 1,1 90 0 1 0,1.78885438 L -0.21114562,4.1055728 A 1.236068,1.236068 31.717474 0 1 -2,3 v -6 a 1.236068,1.236068 148.28253 0 1 1.78885438,-1.1055728 z"
         style="fill:context-stroke;fill-rule:evenodd;stroke:none"
         id="path12-9" />
    </marker>
    <marker
       style="overflow:visible"
       id="marker12-0-1"
       refX="0"
       refY="0"
       orient="auto-start-reverse"
       inkscape:stockid="Rounded arrow"
       markerWidth="1"
       markerHeight="1"
       viewBox="0 0 1 1"
       inkscape:isstock="true"
       inkscape:collect="always"
       preserveAspectRatio="xMidYMid">
      <path
         transform="scale(0.7)"
         d="m -0.21114562,-4.1055728 6.42229122,3.21114561 a 1,1 90 0 1 0,1.78885438 L -0.21114562,4.1055728 A 1.236068,1.236068 31.717474 0 1 -2,3 v -6 a 1.236068,1.236068 148.28253 0 1 1.78885438,-1.1055728 z"
         style="fill:context-stroke;fill-rule:evenodd;stroke:none"
         id="path12-9-5" />
    </marker>
    <marker
       style="overflow:visible"
       id="marker12-0-1-7"
       refX="0"
       refY="0"
       orient="auto-start-reverse"
       inkscape:stockid="Rounded arrow"
       markerWidth="1"
       markerHeight="1"
       viewBox="0 0 1 1"
       inkscape:isstock="true"
       inkscape:collect="always"
       preserveAspectRatio="xMidYMid">
      <path
         transform="scale(0.7)"
         d="m -0.21114562,-4.1055728 6.42229122,3.21114561 a 1,1 90 0 1 0,1.78885438 L -0.21114562,4.1055728 A 1.236068,1.236068 31.717474 0 1 -2,3 v -6 a 1.236068,1.236068 148.28253 0 1 1.78885438,-1.1055728 z"
         style="fill:context-stroke;fill-rule:evenodd;stroke:none"
         id="path12-9-5-3" />
    </marker>
    <marker
       style="overflow:visible"
       id="marker12-0-1-7-9"
       refX="0"
       refY="0"
       orient="auto-start-reverse"
       inkscape:stockid="Rounded arrow"
       markerWidth="1"
       markerHeight="1"
       viewBox="0 0 1 1"
       inkscape:isstock="true"
       inkscape:collect="always"
       preserveAspectRatio="xMidYMid">
      <path
         transform="scale(0.7)"
         d="m -0.21114562,-4.1055728 6.42229122,3.21114561 a 1,1 90 0 1 0,1.78885438 L -0.21114562,4.1055728 A 1.236068,1.236068 31.717474 0 1 -2,3 v -6 a 1.236068,1.236068 148.28253 0 1 1.78885438,-1.1055728 z"
         style="fill:context-stroke;fill-rule:evenodd;stroke:none"
         id="path12-9-5-3-4" />
    </marker>
    <marker
       style="overflow:visible"
       id="RoundedArrow-1-62"
       refX="0"
       refY="0"
       orient="auto-start-reverse"
       inkscape:stockid="Rounded arrow"
       markerWidth="1"
       markerHeight="1"
       viewBox="0 0 1 1"
       inkscape:isstock="true"
       inkscape:collect="always"
       preserveAspectRatio="xMidYMid">
      <path
         transform="scale(0.7)"
         d="m -0.21114562,-4.1055728 6.42229122,3.21114561 a 1,1 90 0 1 0,1.78885438 L -0.21114562,4.1055728 A 1.236068,1.236068 31.717474 0 1 -2,3 v -6 a 1.236068,1.236068 148.28253 0 1 1.78885438,-1.1055728 z"
         style="fill:context-stroke;fill-rule:evenodd;stroke:none"
         id="path8-0-9" />
    </marker>
  </defs>
  <g
     inkscape:label="Layer 1"
     inkscape:groupmode="layer"
     id="layer1">
    <rect
       style="fill:#ffffff;stroke:#ffffff;stroke-width:0.265;stroke-linejoin:bevel"
       id="rect2"
       width="105.05654"
       height="81.832031"
       x="21.807617"
       y="117.33398"
       inkscape:export-filename="myPartH_line.svg"
       inkscape:export-xdpi="96"
       inkscape:export-ydpi="96" />
    <rect
       style="fill:#ffffff;stroke:#ffffff;stroke-width:0.264999;stroke-linejoin:bevel"
       id="rect14"
       width="53.932617"
       height="73.83593"
       x="13.176758"
       y="24.180664"
       inkscape:export-filename="myPartH_circle.svg"
       inkscape:export-xdpi="96"
       inkscape:export-ydpi="96" />
    <text
       xml:space="preserve"
       transform="scale(0.26458333)"
       id="text1"
       style="font-size:14.6667px;line-height:1.25;font-family:sans-serif;white-space:pre;shape-inside:url(#rect1);display:inline"><tspan
         x="7.7441406"
         y="20.261749"
         id="tspan16">myPartH.svg</tspan></text>
    <path
       style="fill:none;stroke:#000000;stroke-width:0.264583px;stroke-linecap:butt;stroke-linejoin:miter;stroke-opacity:1"
       d="M 35.365006,59.98421 V 82.5771 l 4.466706,-16.669975 4.45125,16.669972 -0.13229,-22.520381"
       id="path1"
       sodipodi:nodetypes="ccccc" />
    <path
       style="fill:none;stroke:#cccccc;stroke-width:0.264583px;stroke-linecap:butt;stroke-linejoin:miter;stroke-opacity:1"
       d="m 35.365004,82.5771 v 8.719085"
       id="path2" />
    <path
       style="fill:none;stroke:#cccccc;stroke-width:0.264583px;stroke-linecap:butt;stroke-linejoin:miter;stroke-opacity:1"
       d="m 44.282962,82.577097 v 8.719085"
       id="path2-2" />
    <path
       style="fill:none;stroke:#000000;stroke-width:0.265;stroke-linecap:butt;stroke-linejoin:miter;stroke-opacity:1;marker-start:url(#RoundedArrow);marker-end:url(#RoundedArrow)"
       d="m 36.706117,91.296185 6.274187,-3e-6"
       id="path3" />
    <path
       style="fill:none;stroke:#cccccc;stroke-width:0.264583px;stroke-linecap:butt;stroke-linejoin:miter;stroke-opacity:1"
       d="m 44.415253,82.577097 h 8.719084"
       id="path2-2-7" />
    <path
       style="fill:none;stroke:#cccccc;stroke-width:0.264583px;stroke-linecap:butt;stroke-linejoin:miter;stroke-opacity:1"
       d="m 44.150672,60.056716 h 8.719084"
       id="path2-2-7-6" />
    <path
       style="fill:none;stroke:#000000;stroke-width:0.265001;stroke-linecap:butt;stroke-linejoin:miter;stroke-opacity:1;marker-start:url(#RoundedArrow-2);marker-end:url(#RoundedArrow-2)"
       d="m 52.869754,61.188986 3e-6,19.984316"
       id="path3-7" />
    <path
       style="fill:none;stroke:#cccccc;stroke-width:0.264583px;stroke-linecap:butt;stroke-linejoin:miter;stroke-opacity:1"
       d="m 26.778211,82.444809 h 8.719084"
       id="path2-2-7-2" />
    <path
       style="fill:none;stroke:#cccccc;stroke-width:0.264583px;stroke-linecap:butt;stroke-linejoin:miter;stroke-opacity:1"
       d="M 26.778209,65.907122 H 39.83171"
       id="path2-2-7-6-9" />
    <path
       style="fill:none;stroke:#000000;stroke-width:0.265001;stroke-linecap:butt;stroke-linejoin:miter;stroke-opacity:1;marker-start:url(#RoundedArrow-2-8);marker-end:url(#RoundedArrow-2-8)"
       d="m 26.778209,67.315748 3e-6,13.720428"
       id="path3-7-6" />
    <text
       xml:space="preserve"
       transform="matrix(0.26458333,0,0,0.26458333,-27.568269,18.087847)"
       id="text3"
       style="font-size:14.6667px;line-height:1.25;font-family:sans-serif;white-space:pre;shape-inside:url(#rect3);display:inline"><tspan
         x="245.7207"
         y="293.3262"
         id="tspan17">A1</tspan></text>
    <text
       xml:space="preserve"
       transform="matrix(0.26458333,0,0,0.26458333,-17.038235,3.4074399)"
       id="text4"
       style="font-size:14.6667px;line-height:1.25;font-family:sans-serif;white-space:pre;shape-inside:url(#rect4);display:inline"><tspan
         x="266.63086"
         y="259.70706"
         id="tspan18">A2</tspan></text>
    <text
       xml:space="preserve"
       transform="matrix(0.26458333,0,0,0.26458333,-54.133375,-4.4394429)"
       id="text5"
       style="font-size:14.6667px;line-height:1.25;font-family:sans-serif;white-space:pre;shape-inside:url(#rect5);display:inline"><tspan
         x="284.52734"
         y="300.95706"
         id="tspan19">A3</tspan></text>
    <path
       style="fill:none;stroke:#000000;stroke-width:0.264583px;stroke-linecap:butt;stroke-linejoin:miter;stroke-opacity:1"
       d="M 39.820631,52.411853 20.254614,41.115409 32.457882,53.318677 15.795639,48.838586 35.365006,59.98421"
       id="path1-3"
       sodipodi:nodetypes="ccccc" />
    <path
       style="fill:none;stroke:#000000;stroke-width:0.264583px;stroke-linecap:butt;stroke-linejoin:miter;stroke-opacity:1"
       d="M 39.695047,52.484359 59.261064,41.187915 47.057796,53.391183 63.720039,48.911092 44.150672,60.056716"
       id="path1-3-7"
       sodipodi:nodetypes="ccccc" />
    <path
       style="fill:none;stroke:#000000;stroke-width:0.264583px;stroke-linecap:butt;stroke-linejoin:miter;stroke-opacity:1"
       d="m 37.744068,130.59364 v 22.59289 l 4.466706,-16.66997 4.45125,16.66997 -0.13229,-22.52038"
       id="path4"
       sodipodi:nodetypes="ccccc" />
    <path
       style="fill:none;stroke:#cccccc;stroke-width:0.264583px;stroke-linecap:butt;stroke-linejoin:miter;stroke-opacity:1"
       d="m 37.744066,153.18653 v 8.71909"
       id="path5" />
    <path
       style="fill:none;stroke:#cccccc;stroke-width:0.264583px;stroke-linecap:butt;stroke-linejoin:miter;stroke-opacity:1"
       d="m 46.662024,153.18653 v 8.71908"
       id="path2-2-5" />
    <path
       style="fill:none;stroke:#000000;stroke-width:0.265;stroke-linecap:butt;stroke-linejoin:miter;stroke-opacity:1;marker-start:url(#RoundedArrow-1);marker-end:url(#RoundedArrow-1)"
       d="m 39.085179,161.90562 6.274187,-1e-5"
       id="path6" />
    <path
       style="fill:none;stroke:#cccccc;stroke-width:0.264583px;stroke-linecap:butt;stroke-linejoin:miter;stroke-opacity:1"
       d="m 46.794315,153.18653 h 8.719084"
       id="path2-2-7-69" />
    <path
       style="fill:none;stroke:#cccccc;stroke-width:0.264583px;stroke-linecap:butt;stroke-linejoin:miter;stroke-opacity:1"
       d="m 46.529734,130.66615 h 8.719084"
       id="path2-2-7-6-3" />
    <path
       style="fill:none;stroke:#000000;stroke-width:0.265001;stroke-linecap:butt;stroke-linejoin:miter;stroke-opacity:1;marker-start:url(#RoundedArrow-2-3);marker-end:url(#RoundedArrow-2-3)"
       d="m 55.248816,131.79842 3e-6,19.98431"
       id="path3-7-7" />
    <path
       style="fill:none;stroke:#cccccc;stroke-width:0.264583px;stroke-linecap:butt;stroke-linejoin:miter;stroke-opacity:1"
       d="m 29.157273,153.05424 h 8.719084"
       id="path2-2-7-2-4" />
    <path
       style="fill:none;stroke:#cccccc;stroke-width:0.264583px;stroke-linecap:butt;stroke-linejoin:miter;stroke-opacity:1"
       d="M 29.157271,136.51655 H 42.210772"
       id="path2-2-7-6-9-5" />
    <path
       style="fill:none;stroke:#000000;stroke-width:0.265001;stroke-linecap:butt;stroke-linejoin:miter;stroke-opacity:1;marker-start:url(#RoundedArrow-2-8-6);marker-end:url(#RoundedArrow-2-8-6)"
       d="m 29.157271,137.92518 3e-6,13.72043"
       id="path3-7-6-2" />
    <text
       xml:space="preserve"
       transform="matrix(0.26458333,0,0,0.26458333,-25.189207,88.697276)"
       id="text3-5"
       style="font-size:14.6667px;line-height:1.25;font-family:sans-serif;white-space:pre;shape-inside:url(#rect3-5);display:inline"><tspan
         x="245.7207"
         y="293.3262"
         id="tspan20">A1</tspan></text>
    <text
       xml:space="preserve"
       transform="matrix(0.26458333,0,0,0.26458333,-14.659173,74.016869)"
       id="text4-7"
       style="font-size:14.6667px;line-height:1.25;font-family:sans-serif;white-space:pre;shape-inside:url(#rect4-4);display:inline"><tspan
         x="266.63086"
         y="259.70706"
         id="tspan21">A2</tspan></text>
    <text
       xml:space="preserve"
       transform="matrix(0.26458333,0,0,0.26458333,-51.754313,66.169986)"
       id="text5-4"
       style="font-size:14.6667px;line-height:1.25;font-family:sans-serif;white-space:pre;shape-inside:url(#rect5-7);display:inline"><tspan
         x="284.52734"
         y="300.95706"
         id="tspan22">A3</tspan></text>
    <path
       style="fill:none;stroke:#000000;stroke-width:0.264583px;stroke-linecap:butt;stroke-linejoin:miter;stroke-opacity:1"
       d="M 46.529732,130.66615 H 67.727668"
       id="path7" />
    <path
       style="fill:none;stroke:#000000;stroke-width:0.264583px;stroke-linecap:butt;stroke-linejoin:miter;stroke-opacity:1"
       d="m 67.882932,130.52104 v 28.68294 l 5.678226,-21.16347 5.658579,21.16347 -0.168172,-28.59089"
       id="path4-8"
       sodipodi:nodetypes="ccccc" />
    <path
       style="fill:none;stroke:#000000;stroke-width:0.264583px;stroke-linecap:butt;stroke-linejoin:miter;stroke-opacity:1"
       d="M 79.352026,130.65333 H 100.54996"
       id="path7-4" />
    <path
       style="fill:none;stroke:#000000;stroke-width:0.264583px;stroke-linecap:butt;stroke-linejoin:miter;stroke-opacity:1"
       d="m 100.69251,130.51529 v 32.14344 l 6.36666,-23.71677 6.34464,23.71677 -0.18856,-32.04028"
       id="path4-8-9"
       sodipodi:nodetypes="ccccc" />
    <path
       style="fill:none;stroke:#000000;stroke-width:0.264583px;stroke-linecap:butt;stroke-linejoin:miter;stroke-opacity:1"
       d="M 37.744069,130.59364 V 120.38867"
       id="path9" />
    <path
       style="fill:none;stroke:#000000;stroke-width:0.264583px;stroke-linecap:butt;stroke-linejoin:miter;stroke-opacity:1"
       d="M 113.21525,130.61845 V 120.41348"
       id="path9-8" />
    <path
       style="fill:none;stroke:#000000;stroke-width:0.264583px;stroke-linecap:butt;stroke-linejoin:miter;stroke-opacity:1"
       d="m 37.744069,120.38867 75.471181,0.0248"
       id="path10" />
    <path
       style="fill:none;stroke:#000000;stroke-width:0.265;stroke-linecap:butt;stroke-linejoin:miter;stroke-opacity:1;marker-start:url(#RoundedArrow-1-6);marker-end:url(#RoundedArrow-1-6)"
       d="m 47.886276,161.90562 18.856751,-1e-5"
       id="path6-5" />
    <path
       style="fill:none;stroke:#cccccc;stroke-width:0.264583px;stroke-linecap:butt;stroke-linejoin:miter;stroke-opacity:1"
       d="m 67.882932,159.23826 v 3.45315"
       id="path2-2-5-7" />
    <text
       xml:space="preserve"
       transform="matrix(0.26458333,0,0,0.26458333,4.7765122,-8.6535133)"
       id="text10"
       style="font-size:14.6667px;line-height:1.25;font-family:sans-serif;white-space:pre;shape-inside:url(#rect10);display:inline"><tspan
         x="193.33789"
         y="658.29495"
         id="tspan23">B</tspan></text>
    <text
       xml:space="preserve"
       transform="matrix(0.26458333,0,0,0.26458333,3.4537907,-4.2167969)"
       id="text11"
       style="font-size:14.6667px;line-height:1.25;font-family:sans-serif;white-space:pre;shape-inside:url(#rect11);display:inline"><tspan
         x="243.34375"
         y="679.1387"
         id="tspan24">scale
</tspan><tspan
         x="243.34375"
         y="697.47208"
         id="tspan25">1*SF1</tspan></text>
    <text
       xml:space="preserve"
       transform="matrix(0.26458333,0,0,0.26458333,37.735171,-4.0779025)"
       id="text11-2"
       style="font-size:14.6667px;line-height:1.25;font-family:sans-serif;white-space:pre;shape-inside:url(#rect11-2);display:inline"><tspan
         x="243.34375"
         y="679.1387"
         id="tspan26">scale
</tspan><tspan
         x="243.34375"
         y="697.47208"
         id="tspan27">2*SF1</tspan></text>
    <path
       style="fill:none;stroke:#000000;stroke-width:0.264583px;stroke-linecap:butt;stroke-linejoin:miter;stroke-opacity:1;marker-end:url(#marker12)"
       d="m 73.551332,170.75 v -9.01875"
       id="path11"
       sodipodi:nodetypes="cc" />
    <path
       style="fill:none;stroke:#000000;stroke-width:0.264583px;stroke-linecap:butt;stroke-linejoin:miter;stroke-opacity:1;marker-end:url(#marker12-6)"
       d="m 107.04816,172.12092 v -9.01875"
       id="path11-9"
       sodipodi:nodetypes="cc" />
    <text
       xml:space="preserve"
       transform="matrix(0.26458333,0,0,0.26458333,-0.12240146,1.1044922)"
       id="text12"
       style="font-size:14.6667px;line-height:1.25;font-family:sans-serif;white-space:pre;shape-inside:url(#rect12);display:inline"><tspan
         x="248.82031"
         y="732.44144"
         id="tspan28">N2</tspan></text>
    <path
       style="fill:none;stroke:#000000;stroke-width:0.264583px;stroke-linecap:butt;stroke-linejoin:miter;stroke-opacity:1;marker-end:url(#marker12-0)"
       d="M 66.746218,191.45634 49.262134,168.51553"
       id="path11-7"
       sodipodi:nodetypes="cc" />
    <path
       style="fill:none;stroke:#000000;stroke-width:0.264583px;stroke-linecap:butt;stroke-linejoin:miter;stroke-opacity:1;marker-end:url(#marker12-0-1)"
       d="m 69.726735,190.96285 30.833485,-23.5408"
       id="path11-7-7"
       sodipodi:nodetypes="cc" />
    <text
       xml:space="preserve"
       transform="matrix(0.26458333,0,0,0.26458333,2.1166667,0)"
       id="text13"
       style="font-size:14.6667px;line-height:1.25;font-family:sans-serif;white-space:pre;shape-inside:url(#rect13);display:inline"><tspan
         x="125.87695"
         y="109.48831"
         id="tspan29">N1</tspan></text>
    <path
       style="fill:none;stroke:#000000;stroke-width:0.264583px;stroke-linecap:butt;stroke-linejoin:miter;stroke-opacity:1;marker-end:url(#marker12-0-1-7)"
       d="M 39.307279,30.327365 52.89365,41.553519"
       id="path11-7-7-5"
       sodipodi:nodetypes="cc" />
    <path
       style="fill:none;stroke:#000000;stroke-width:0.264583px;stroke-linecap:butt;stroke-linejoin:miter;stroke-opacity:1;marker-end:url(#marker12-0-1-7-9)"
       d="M 35.789902,30.237723 25.339273,40.332041"
       id="path11-7-7-5-1"
       sodipodi:nodetypes="cc" />
    <path
       style="fill:none;stroke:#cccccc;stroke-width:0.264583px;stroke-linecap:butt;stroke-linejoin:miter;stroke-opacity:1"
       d="m 100.56022,130.64758 h 22.42463"
       id="path2-2-7-6-9-5-5" />
    <path
       style="fill:none;stroke:#000000;stroke-width:0.265;stroke-linecap:butt;stroke-linejoin:miter;stroke-opacity:1;marker-start:url(#RoundedArrow-1-62);marker-end:url(#RoundedArrow-1-62)"
       d="m 122.19906,129.22001 -1e-5,-7.24666"
       id="path6-7" />
    <path
       style="fill:none;stroke:#cccccc;stroke-width:0.264583px;stroke-linecap:butt;stroke-linejoin:miter;stroke-opacity:1"
       d="m 113.34754,120.54577 h 9.23811"
       id="path2-2-7-6-9-5-5-6" />
    <text
       xml:space="preserve"
       transform="matrix(0.26458333,0,0,0.26458333,-1.059257,-17.713352)"
       id="text2"
       style="font-size:14.6667px;line-height:1.25;font-family:sans-serif;white-space:pre;shape-inside:url(#rect6);display:inline"><tspan
         x="467.38867"
         y="546.99026"
         id="tspan30">E</tspan></text>
  </g>
</svg>
