<?xml version="1.0" encoding="UTF-8" standalone="no"?>
<!-- Created with Inkscape (http://www.inkscape.org/) -->

<svg
   width="379.97519"
   height="268.23547"
   viewBox="0 0 100.5351 70.970636"
   version="1.1"
   id="svg1"
   inkscape:version="1.3.2 (1:1.3.2+202311252150+091e20ef0f)"
   sodipodi:docname="myPartC.svg"
   xmlns:inkscape="http://www.inkscape.org/namespaces/inkscape"
   xmlns:sodipodi="http://sodipodi.sourceforge.net/DTD/sodipodi-0.dtd"
   xmlns="http://www.w3.org/2000/svg"
   xmlns:svg="http://www.w3.org/2000/svg">
  <sodipodi:namedview
     id="namedview1"
     pagecolor="#ffffff"
     bordercolor="#666666"
     borderopacity="1.0"
     inkscape:showpageshadow="2"
     inkscape:pageopacity="0.0"
     inkscape:pagecheckerboard="0"
     inkscape:deskcolor="#d1d1d1"
     inkscape:document-units="px"
     inkscape:zoom="0.74835468"
     inkscape:cx="213.80236"
     inkscape:cy="893.96113"
     inkscape:window-width="1370"
     inkscape:window-height="836"
     inkscape:window-x="0"
     inkscape:window-y="0"
     inkscape:window-maximized="1"
     inkscape:current-layer="layer1" />
  <defs
     id="defs1">
    <rect
       x="116.36726"
       y="88.749382"
       width="54.364052"
       height="31.840685"
       id="rect12" />
    <rect
       x="348.14377"
       y="127.41788"
       width="49.547245"
       height="16.8953"
       id="rect11" />
    <rect
       x="311.29245"
       y="93.166832"
       width="56.211246"
       height="23.780758"
       id="rect10" />
    <rect
       x="318.36984"
       y="136.60834"
       width="38.257565"
       height="16.570498"
       id="rect9" />
    <rect
       x="364.33133"
       y="365.44968"
       width="44.486958"
       height="23.310162"
       id="rect7" />
    <rect
       x="277.52029"
       y="359.00528"
       width="57.997662"
       height="26.048843"
       id="rect6" />
    <rect
       x="162.35359"
       y="360.86923"
       width="48.711246"
       height="26.930979"
       id="rect5" />
    <rect
       x="192.91646"
       y="231.00333"
       width="51.981422"
       height="30.612698"
       id="rect4" />
    <rect
       x="136.02608"
       y="219.70903"
       width="49.609989"
       height="34.515869"
       id="rect3" />
    <marker
       style="overflow:visible"
       id="RoundedArrow"
       refX="0"
       refY="0"
       orient="auto-start-reverse"
       inkscape:stockid="Rounded arrow"
       markerWidth="1"
       markerHeight="1"
       viewBox="0 0 1 1"
       inkscape:isstock="true"
       inkscape:collect="always"
       preserveAspectRatio="xMidYMid">
      <path
         transform="scale(0.7)"
         d="m -0.21114562,-4.1055728 6.42229122,3.21114561 a 1,1 90 0 1 0,1.78885438 L -0.21114562,4.1055728 A 1.236068,1.236068 31.717474 0 1 -2,3 v -6 a 1.236068,1.236068 148.28253 0 1 1.78885438,-1.1055728 z"
         style="fill:context-stroke;fill-rule:evenodd;stroke:none"
         id="path8" />
    </marker>
    <marker
       style="overflow:visible"
       id="RoundedArrow-6"
       refX="0"
       refY="0"
       orient="auto-start-reverse"
       inkscape:stockid="Rounded arrow"
       markerWidth="1"
       markerHeight="1"
       viewBox="0 0 1 1"
       inkscape:isstock="true"
       inkscape:collect="always"
       preserveAspectRatio="xMidYMid">
      <path
         transform="scale(0.7)"
         d="m -0.21114562,-4.1055728 6.42229122,3.21114561 a 1,1 90 0 1 0,1.78885438 L -0.21114562,4.1055728 A 1.236068,1.236068 31.717474 0 1 -2,3 v -6 a 1.236068,1.236068 148.28253 0 1 1.78885438,-1.1055728 z"
         style="fill:context-stroke;fill-rule:evenodd;stroke:none"
         id="path8-2" />
    </marker>
    <marker
       style="overflow:visible"
       id="RoundedArrow-6-9"
       refX="0"
       refY="0"
       orient="auto-start-reverse"
       inkscape:stockid="Rounded arrow"
       markerWidth="1"
       markerHeight="1"
       viewBox="0 0 1 1"
       inkscape:isstock="true"
       inkscape:collect="always"
       preserveAspectRatio="xMidYMid">
      <path
         transform="scale(0.7)"
         d="m -0.21114562,-4.1055728 6.42229122,3.21114561 a 1,1 90 0 1 0,1.78885438 L -0.21114562,4.1055728 A 1.236068,1.236068 31.717474 0 1 -2,3 v -6 a 1.236068,1.236068 148.28253 0 1 1.78885438,-1.1055728 z"
         style="fill:context-stroke;fill-rule:evenodd;stroke:none"
         id="path8-2-3" />
    </marker>
    <marker
       style="overflow:visible"
       id="RoundedArrow-6-1"
       refX="0"
       refY="0"
       orient="auto-start-reverse"
       inkscape:stockid="Rounded arrow"
       markerWidth="1"
       markerHeight="1"
       viewBox="0 0 1 1"
       inkscape:isstock="true"
       inkscape:collect="always"
       preserveAspectRatio="xMidYMid">
      <path
         transform="scale(0.7)"
         d="m -0.21114562,-4.1055728 6.42229122,3.21114561 a 1,1 90 0 1 0,1.78885438 L -0.21114562,4.1055728 A 1.236068,1.236068 31.717474 0 1 -2,3 v -6 a 1.236068,1.236068 148.28253 0 1 1.78885438,-1.1055728 z"
         style="fill:context-stroke;fill-rule:evenodd;stroke:none"
         id="path8-2-8" />
    </marker>
    <marker
       style="overflow:visible"
       id="RoundedArrow-6-9-3"
       refX="0"
       refY="0"
       orient="auto-start-reverse"
       inkscape:stockid="Rounded arrow"
       markerWidth="1"
       markerHeight="1"
       viewBox="0 0 1 1"
       inkscape:isstock="true"
       inkscape:collect="always"
       preserveAspectRatio="xMidYMid">
      <path
         transform="scale(0.7)"
         d="m -0.21114562,-4.1055728 6.42229122,3.21114561 a 1,1 90 0 1 0,1.78885438 L -0.21114562,4.1055728 A 1.236068,1.236068 31.717474 0 1 -2,3 v -6 a 1.236068,1.236068 148.28253 0 1 1.78885438,-1.1055728 z"
         style="fill:context-stroke;fill-rule:evenodd;stroke:none"
         id="path8-2-3-7" />
    </marker>
    <marker
       style="overflow:visible"
       id="RoundedArrow-6-1-7"
       refX="0"
       refY="0"
       orient="auto-start-reverse"
       inkscape:stockid="Rounded arrow"
       markerWidth="1"
       markerHeight="1"
       viewBox="0 0 1 1"
       inkscape:isstock="true"
       inkscape:collect="always"
       preserveAspectRatio="xMidYMid">
      <path
         transform="scale(0.7)"
         d="m -0.21114562,-4.1055728 6.42229122,3.21114561 a 1,1 90 0 1 0,1.78885438 L -0.21114562,4.1055728 A 1.236068,1.236068 31.717474 0 1 -2,3 v -6 a 1.236068,1.236068 148.28253 0 1 1.78885438,-1.1055728 z"
         style="fill:context-stroke;fill-rule:evenodd;stroke:none"
         id="path8-2-8-6" />
    </marker>
    <marker
       style="overflow:visible"
       id="RoundedArrow-6-1-7-0"
       refX="0"
       refY="0"
       orient="auto-start-reverse"
       inkscape:stockid="Rounded arrow"
       markerWidth="1"
       markerHeight="1"
       viewBox="0 0 1 1"
       inkscape:isstock="true"
       inkscape:collect="always"
       preserveAspectRatio="xMidYMid">
      <path
         transform="scale(0.7)"
         d="m -0.21114562,-4.1055728 6.42229122,3.21114561 a 1,1 90 0 1 0,1.78885438 L -0.21114562,4.1055728 A 1.236068,1.236068 31.717474 0 1 -2,3 v -6 a 1.236068,1.236068 148.28253 0 1 1.78885438,-1.1055728 z"
         style="fill:context-stroke;fill-rule:evenodd;stroke:none"
         id="path8-2-8-6-6" />
    </marker>
    <marker
       style="overflow:visible"
       id="RoundedArrow-6-1-7-4"
       refX="0"
       refY="0"
       orient="auto-start-reverse"
       inkscape:stockid="Rounded arrow"
       markerWidth="1"
       markerHeight="1"
       viewBox="0 0 1 1"
       inkscape:isstock="true"
       inkscape:collect="always"
       preserveAspectRatio="xMidYMid">
      <path
         transform="scale(0.7)"
         d="m -0.21114562,-4.1055728 6.42229122,3.21114561 a 1,1 90 0 1 0,1.78885438 L -0.21114562,4.1055728 A 1.236068,1.236068 31.717474 0 1 -2,3 v -6 a 1.236068,1.236068 148.28253 0 1 1.78885438,-1.1055728 z"
         style="fill:context-stroke;fill-rule:evenodd;stroke:none"
         id="path8-2-8-6-8" />
    </marker>
    <marker
       style="overflow:visible"
       id="RoundedArrow-6-1-7-0-9"
       refX="0"
       refY="0"
       orient="auto-start-reverse"
       inkscape:stockid="Rounded arrow"
       markerWidth="1"
       markerHeight="1"
       viewBox="0 0 1 1"
       inkscape:isstock="true"
       inkscape:collect="always"
       preserveAspectRatio="xMidYMid">
      <path
         transform="scale(0.7)"
         d="m -0.21114562,-4.1055728 6.42229122,3.21114561 a 1,1 90 0 1 0,1.78885438 L -0.21114562,4.1055728 A 1.236068,1.236068 31.717474 0 1 -2,3 v -6 a 1.236068,1.236068 148.28253 0 1 1.78885438,-1.1055728 z"
         style="fill:context-stroke;fill-rule:evenodd;stroke:none"
         id="path8-2-8-6-6-4" />
    </marker>
  </defs>
  <g
     inkscape:label="Layer 1"
     inkscape:groupmode="layer"
     id="layer1"
     transform="translate(-28.625523,-26.012239)">
    <rect
       style="fill:#ffffff;stroke:#ffffff;stroke-width:0.264583;stroke-linejoin:bevel"
       id="rect15"
       width="100.27052"
       height="70.706055"
       x="28.757812"
       y="26.144529"
       inkscape:export-filename="myPartC_cut.svg"
       inkscape:export-xdpi="96"
       inkscape:export-ydpi="96" />
    <path
       style="fill:none;stroke:#ececec;stroke-width:0.264583px;stroke-linecap:butt;stroke-linejoin:miter;stroke-opacity:1"
       d="m 111.14435,67.411169 h -7.57872"
       id="path4-9-4-2-8-4-9-1-7" />
    <path
       style="fill:none;stroke:#ececec;stroke-width:0.264583px;stroke-linecap:butt;stroke-linejoin:miter;stroke-opacity:1"
       d="m 111.14435,59.473667 h -7.57872"
       id="path4-9-4-2-8-4-9-1" />
    <path
       style="fill:#ffd5d5;stroke:#ffd5d5;stroke-width:0.264583px;stroke-linecap:butt;stroke-linejoin:bevel;stroke-opacity:1"
       d="M 34.139647,85.246093 90.526364,67.54346 H 103.43334 L 72.771481,85.246093 H 34.139647"
       id="path15" />
    <path
       style="fill:#ffd5d5;stroke:#ffd5d5;stroke-width:0.264583px;stroke-linecap:butt;stroke-linejoin:bevel;stroke-opacity:1"
       d="m 71.006345,37.314941 1.765136,-0.132292 v 4.720678 L 103.43334,59.605954 H 90.526364 L 71.006345,53.477638 V 37.314941"
       id="path14" />
    <path
       style="fill:#ffd5d5;stroke:#ffd5d5;stroke-width:0.264583px;stroke-linecap:butt;stroke-linejoin:miter;stroke-opacity:1"
       d="m 43.676964,41.903327 h 20.638952 v -4.588386 h 1.765139 v 14.6164 l -23.020383,-7.227257 0.616292,-2.80076"
       id="path13"
       sodipodi:nodetypes="ccccccc" />
    <path
       style="fill:none;stroke:#ececec;stroke-width:0.264583px;stroke-linecap:butt;stroke-linejoin:miter;stroke-opacity:1"
       d="m 43.676964,36.719727 v 5.183599"
       id="path4-9-4-2-8-2" />
    <path
       style="fill:none;stroke:#ececec;stroke-width:0.264583px;stroke-linecap:butt;stroke-linejoin:miter;stroke-opacity:1"
       d="m 34.18598,36.734273 v 5.183599"
       id="path4-9-4-2-8-6" />
    <path
       style="fill:none;stroke:#ececec;stroke-width:0.264583px;stroke-linecap:butt;stroke-linejoin:miter;stroke-opacity:1"
       d="m 66.081055,52.16416 v 5.183599"
       id="path4-9-4-2" />
    <path
       style="fill:none;stroke:#ececec;stroke-width:0.264583px;stroke-linecap:butt;stroke-linejoin:miter;stroke-opacity:1"
       d="m 71.048457,53.477638 v 3.865967"
       id="path4-9-4-2-7" />
    <path
       style="fill:none;stroke:#4d4d4d;stroke-width:0.264583;stroke-linecap:butt;stroke-linejoin:bevel;stroke-opacity:1"
       d="M 34.139649,85.246093 H 72.771482 L 103.43334,67.54346 H 90.526365 Z"
       id="path1" />
    <path
       style="fill:none;stroke:#4d4d4d;stroke-width:0.264583px;stroke-linecap:butt;stroke-linejoin:bevel;stroke-opacity:1"
       d="M 34.139649,41.903326 H 72.771482 L 103.43334,59.605955 H 90.526365 Z"
       id="path1-5" />
    <path
       style="fill:none;stroke:#000000;stroke-width:0.264583;stroke-linecap:butt;stroke-linejoin:miter;stroke-opacity:1;marker-start:url(#RoundedArrow);marker-end:url(#RoundedArrow)"
       d="M 34.871953,88.421095 H 71.669546"
       id="path2" />
    <path
       style="fill:none;stroke:#000000;stroke-width:0.264583;stroke-linecap:butt;stroke-linejoin:miter;stroke-opacity:1;marker-start:url(#RoundedArrow-6);marker-end:url(#RoundedArrow-6)"
       d="M 73.906456,88.421096 H 102.81539"
       id="path2-2" />
    <path
       style="fill:none;stroke:#000000;stroke-width:0.264584;stroke-linecap:butt;stroke-linejoin:miter;stroke-opacity:1;marker-start:url(#RoundedArrow-6-9-3);marker-end:url(#RoundedArrow-6-9-3)"
       d="M 111.14435,66.383099 V 60.686744"
       id="path2-2-6-2" />
    <path
       style="fill:none;stroke:#ececec;stroke-width:0.264583px;stroke-linecap:butt;stroke-linejoin:miter;stroke-opacity:1"
       d="m 73.829815,41.903327 45.171825,-0.04395"
       id="path3" />
    <path
       style="fill:none;stroke:#ececec;stroke-width:0.264583px;stroke-linecap:butt;stroke-linejoin:miter;stroke-opacity:1"
       d="m 73.829816,85.246093 45.171834,-0.04395"
       id="path3-3" />
    <path
       style="fill:none;stroke:#000000;stroke-width:0.264584;stroke-linecap:butt;stroke-linejoin:miter;stroke-opacity:1;marker-start:url(#RoundedArrow-6-9);marker-end:url(#RoundedArrow-6-9)"
       d="M 119.7862,84.11061 V 43.20799"
       id="path2-2-6" />
    <text
       xml:space="preserve"
       transform="matrix(0.26458333,0,0,0.26458333,75.348144,3.3374023)"
       id="text3"
       style="font-size:14.6667px;line-height:1.25;font-family:sans-serif;white-space:pre;shape-inside:url(#rect3);display:inline"><tspan
         x="136.02539"
         y="232.68558"
         id="tspan1">D1</tspan></text>
    <text
       xml:space="preserve"
       transform="matrix(0.26458333,0,0,0.26458333,69.195312,0.53515625)"
       id="text4"
       style="font-size:14.6667px;line-height:1.25;font-family:sans-serif;white-space:pre;shape-inside:url(#rect4);display:inline"><tspan
         x="192.91602"
         y="243.9805"
         id="tspan2">D2</tspan></text>
    <path
       style="fill:none;stroke:#ececec;stroke-width:0.264583px;stroke-linecap:butt;stroke-linejoin:miter;stroke-opacity:1"
       d="m 103.82599,68.072626 v 19.69137"
       id="path4" />
    <text
       xml:space="preserve"
       transform="matrix(0.26458333,0,0,0.26458333,10.163086,-6.7133789)"
       id="text5"
       style="font-size:14.6667px;line-height:1.25;font-family:sans-serif;white-space:pre;shape-inside:url(#rect5);display:inline"><tspan
         x="162.35352"
         y="373.84573"
         id="tspan3">L1</tspan></text>
    <text
       xml:space="preserve"
       transform="matrix(0.26458333,0,0,0.26458333,16.036621,-6.4013672)"
       id="text6"
       style="font-size:14.6667px;line-height:1.25;font-family:sans-serif;white-space:pre;shape-inside:url(#rect6);display:inline"><tspan
         x="277.51953"
         y="371.98245"
         id="tspan4">L2</tspan></text>
    <text
       xml:space="preserve"
       transform="matrix(0.26458333,0,0,0.26458333,-1.1328125,-34.957519)"
       id="text7"
       style="font-size:14.6667px;line-height:1.25;font-family:sans-serif;white-space:pre;shape-inside:url(#rect7);display:inline"><tspan
         x="364.33203"
         y="378.42581"
         id="tspan5">L3</tspan></text>
    <path
       style="fill:#999999;stroke:#999999;stroke-width:0.264583px;stroke-linecap:butt;stroke-linejoin:miter;stroke-opacity:1"
       d="M 34.18598,41.903324 V 85.378381"
       id="path4-9" />
    <path
       style="fill:none;stroke:#999999;stroke-width:0.264583px;stroke-linecap:butt;stroke-linejoin:miter;stroke-opacity:1"
       d="M 90.526365,59.605955 V 67.54346"
       id="path4-9-4" />
    <path
       style="fill:none;stroke:#999999;stroke-width:0.264583px;stroke-linecap:butt;stroke-linejoin:miter;stroke-opacity:1"
       d="M 103.43334,59.605955 V 67.54346"
       id="path4-9-4-1" />
    <path
       style="fill:none;stroke:#000000;stroke-width:0.264583;stroke-linecap:butt;stroke-linejoin:miter;stroke-opacity:1;marker-start:url(#RoundedArrow-6-1);marker-end:url(#RoundedArrow-6-1)"
       d="M 91.995259,65.896386 H 102.28676"
       id="path2-2-2" />
    <rect
       style="fill:none;stroke:#4d4d4d;stroke-width:0.264583;stroke-linejoin:bevel"
       id="rect8"
       width="8.4555645"
       height="4.5883846"
       x="64.315918"
       y="37.314941" />
    <path
       style="fill:none;stroke:#000000;stroke-width:0.264583px;stroke-linecap:butt;stroke-linejoin:miter;stroke-opacity:1"
       d="m 66.081055,37.314941 h 4.92529 v 16.162697 l -4.92529,-1.546297 v -14.6164"
       id="path9"
       sodipodi:nodetypes="ccccc" />
    <path
       style="fill:none;stroke:#000000;stroke-width:0.264583;stroke-linecap:butt;stroke-linejoin:miter;stroke-opacity:1;marker-start:url(#RoundedArrow-6-1-7);marker-end:url(#RoundedArrow-6-1-7)"
       d="m 67.201498,56.563205 h 2.501283"
       id="path2-2-2-3" />
    <path
       style="fill:none;stroke:#ececec;stroke-width:0.264583px;stroke-linecap:butt;stroke-linejoin:miter;stroke-opacity:1"
       d="M 64.315918,31.999051 V 37.18265"
       id="path4-9-4-2-8" />
    <path
       style="fill:none;stroke:#ececec;stroke-width:0.264583px;stroke-linecap:butt;stroke-linejoin:miter;stroke-opacity:1"
       d="M 72.771482,31.999051 V 37.18265"
       id="path4-9-4-2-8-4" />
    <path
       style="fill:none;stroke:#000000;stroke-width:0.264583;stroke-linecap:butt;stroke-linejoin:miter;stroke-opacity:1;marker-start:url(#RoundedArrow-6-1-7-0);marker-end:url(#RoundedArrow-6-1-7-0)"
       d="m 65.620934,31.999049 h 5.771891"
       id="path2-2-2-3-2" />
    <path
       style="fill:none;stroke:#ececec;stroke-width:0.264583px;stroke-linecap:butt;stroke-linejoin:miter;stroke-opacity:1"
       d="M 78.087372,37.314941 H 72.903774"
       id="path4-9-4-2-8-4-9" />
    <path
       style="fill:none;stroke:#000000;stroke-width:0.264583;stroke-linecap:butt;stroke-linejoin:miter;stroke-opacity:1;marker-start:url(#RoundedArrow-6-1-7-4);marker-end:url(#RoundedArrow-6-1-7-4)"
       d="m 78.087372,38.500093 v 2.102203"
       id="path2-2-2-3-7" />
    <text
       xml:space="preserve"
       transform="matrix(0.26458333,0,0,0.26458333,-4.8112793,1.4499512)"
       id="text9"
       style="font-size:14.6667px;line-height:1.25;font-family:sans-serif;white-space:pre;shape-inside:url(#rect9);display:inline"><tspan
         x="318.36914"
         y="149.58401"
         id="tspan6">H1</tspan></text>
    <text
       xml:space="preserve"
       transform="matrix(0.26458333,0,0,0.26458333,-16.753418,32.806396)"
       id="text10"
       style="font-size:14.6667px;line-height:1.25;font-family:sans-serif;white-space:pre;shape-inside:url(#rect10);display:inline"><tspan
         x="311.29297"
         y="106.14261"
         id="tspan7">D3</tspan></text>
    <text
       xml:space="preserve"
       transform="matrix(0.26458333,0,0,0.26458333,-25.844971,-6.2509765)"
       id="text11"
       style="font-size:14.6667px;line-height:1.25;font-family:sans-serif;white-space:pre;shape-inside:url(#rect11);display:inline"><tspan
         x="348.14453"
         y="140.39456"
         id="tspan8">D4</tspan></text>
    <path
       style="fill:none;stroke:#000000;stroke-width:0.264583px;stroke-linecap:butt;stroke-linejoin:miter;stroke-opacity:1"
       d="m 34.139647,85.246093 c -0.217741,-0.381665 -0.217741,-0.381665 0,0"
       id="path11" />
    <path
       style="fill:none;stroke:#000000;stroke-width:0.264583px;stroke-linecap:butt;stroke-linejoin:miter;stroke-opacity:1"
       d="M 34.139647,85.246093 43.676964,41.903324"
       id="path12" />
    <path
       style="fill:none;stroke:#000000;stroke-width:0.264583;stroke-linecap:butt;stroke-linejoin:miter;stroke-opacity:1;marker-start:url(#RoundedArrow-6-1-7-0-9);marker-end:url(#RoundedArrow-6-1-7-0-9)"
       d="m 35.371397,36.734273 h 6.927936"
       id="path2-2-2-3-2-9" />
    <text
       xml:space="preserve"
       transform="matrix(0.26458333,0,0,0.26458333,5.732813,8.254643)"
       id="text12"
       style="font-size:14.6667px;line-height:1.25;font-family:sans-serif;white-space:pre;shape-inside:url(#rect12);display:inline"><tspan
         x="116.36719"
         y="101.72659"
         id="tspan9">L4</tspan></text>
  </g>
</svg>
