<?xml version="1.0" encoding="UTF-8" standalone="no"?>
<!-- Created with Inkscape (http://www.inkscape.org/) -->

<svg
   width="600"
   height="3000"
   viewBox="0 0 158.75 793.75"
   version="1.1"
   id="svg1"
   inkscape:version="1.3.2 (1:1.3.2+202311252150+091e20ef0f)"
   sodipodi:docname="myPartD.svg"
   xmlns:inkscape="http://www.inkscape.org/namespaces/inkscape"
   xmlns:sodipodi="http://sodipodi.sourceforge.net/DTD/sodipodi-0.dtd"
   xmlns="http://www.w3.org/2000/svg"
   xmlns:svg="http://www.w3.org/2000/svg">
  <sodipodi:namedview
     id="namedview1"
     pagecolor="#ffffff"
     bordercolor="#666666"
     borderopacity="1.0"
     inkscape:showpageshadow="2"
     inkscape:pageopacity="0.0"
     inkscape:pagecheckerboard="0"
     inkscape:deskcolor="#d1d1d1"
     inkscape:document-units="px"
     inkscape:zoom="1.0583334"
     inkscape:cx="306.14172"
     inkscape:cy="514.01573"
     inkscape:window-width="1370"
     inkscape:window-height="836"
     inkscape:window-x="0"
     inkscape:window-y="0"
     inkscape:window-maximized="1"
     inkscape:current-layer="layer1" />
  <defs
     id="defs1">
    <rect
       x="129.1509"
       y="889.9732"
       width="100.5"
       height="56.775592"
       id="rect18" />
    <rect
       x="412.55347"
       y="599.65141"
       width="73.178764"
       height="40.15058"
       id="rect8" />
    <rect
       x="355.38263"
       y="143.11823"
       width="43.364911"
       height="27.859252"
       id="rect7" />
    <rect
       x="340.37525"
       y="88.265256"
       width="46.13312"
       height="32.904774"
       id="rect6" />
    <rect
       x="338.30094"
       y="156.24508"
       width="53.308317"
       height="23.208661"
       id="rect5" />
    <rect
       x="334.63029"
       y="117.07862"
       width="38.959769"
       height="26.595103"
       id="rect4" />
    <rect
       x="338.51316"
       y="71.102362"
       width="28.147146"
       height="20.056595"
       id="rect3" />
    <marker
       style="overflow:visible"
       id="RoundedArrow"
       refX="0"
       refY="0"
       orient="auto-start-reverse"
       inkscape:stockid="Rounded arrow"
       markerWidth="1"
       markerHeight="1"
       viewBox="0 0 1 1"
       inkscape:isstock="true"
       inkscape:collect="always"
       preserveAspectRatio="xMidYMid">
      <path
         transform="scale(0.7)"
         d="m -0.21114562,-4.1055728 6.42229122,3.21114561 a 1,1 90 0 1 0,1.78885438 L -0.21114562,4.1055728 A 1.236068,1.236068 31.717474 0 1 -2,3 v -6 a 1.236068,1.236068 148.28253 0 1 1.78885438,-1.1055728 z"
         style="fill:context-stroke;fill-rule:evenodd;stroke:none"
         id="path8" />
    </marker>
    <rect
       x="20.684055"
       y="12.320374"
       width="201.03839"
       height="52.308071"
       id="rect1" />
    <marker
       style="overflow:visible"
       id="RoundedArrow-6"
       refX="0"
       refY="0"
       orient="auto-start-reverse"
       inkscape:stockid="Rounded arrow"
       markerWidth="1"
       markerHeight="1"
       viewBox="0 0 1 1"
       inkscape:isstock="true"
       inkscape:collect="always"
       preserveAspectRatio="xMidYMid">
      <path
         transform="scale(0.7)"
         d="m -0.21114562,-4.1055728 6.42229122,3.21114561 a 1,1 90 0 1 0,1.78885438 L -0.21114562,4.1055728 A 1.236068,1.236068 31.717474 0 1 -2,3 v -6 a 1.236068,1.236068 148.28253 0 1 1.78885438,-1.1055728 z"
         style="fill:context-stroke;fill-rule:evenodd;stroke:none"
         id="path8-1" />
    </marker>
    <marker
       style="overflow:visible"
       id="RoundedArrow-1"
       refX="0"
       refY="0"
       orient="auto-start-reverse"
       inkscape:stockid="Rounded arrow"
       markerWidth="1"
       markerHeight="1"
       viewBox="0 0 1 1"
       inkscape:isstock="true"
       inkscape:collect="always"
       preserveAspectRatio="xMidYMid">
      <path
         transform="scale(0.7)"
         d="m -0.21114562,-4.1055728 6.42229122,3.21114561 a 1,1 90 0 1 0,1.78885438 L -0.21114562,4.1055728 A 1.236068,1.236068 31.717474 0 1 -2,3 v -6 a 1.236068,1.236068 148.28253 0 1 1.78885438,-1.1055728 z"
         style="fill:context-stroke;fill-rule:evenodd;stroke:none"
         id="path8-9" />
    </marker>
    <marker
       style="overflow:visible"
       id="RoundedArrow-6-6"
       refX="0"
       refY="0"
       orient="auto-start-reverse"
       inkscape:stockid="Rounded arrow"
       markerWidth="1"
       markerHeight="1"
       viewBox="0 0 1 1"
       inkscape:isstock="true"
       inkscape:collect="always"
       preserveAspectRatio="xMidYMid">
      <path
         transform="scale(0.7)"
         d="m -0.21114562,-4.1055728 6.42229122,3.21114561 a 1,1 90 0 1 0,1.78885438 L -0.21114562,4.1055728 A 1.236068,1.236068 31.717474 0 1 -2,3 v -6 a 1.236068,1.236068 148.28253 0 1 1.78885438,-1.1055728 z"
         style="fill:context-stroke;fill-rule:evenodd;stroke:none"
         id="path8-1-1" />
    </marker>
    <marker
       style="overflow:visible"
       id="RoundedArrow-1-6"
       refX="0"
       refY="0"
       orient="auto-start-reverse"
       inkscape:stockid="Rounded arrow"
       markerWidth="1"
       markerHeight="1"
       viewBox="0 0 1 1"
       inkscape:isstock="true"
       inkscape:collect="always"
       preserveAspectRatio="xMidYMid">
      <path
         transform="scale(0.7)"
         d="m -0.21114562,-4.1055728 6.42229122,3.21114561 a 1,1 90 0 1 0,1.78885438 L -0.21114562,4.1055728 A 1.236068,1.236068 31.717474 0 1 -2,3 v -6 a 1.236068,1.236068 148.28253 0 1 1.78885438,-1.1055728 z"
         style="fill:context-stroke;fill-rule:evenodd;stroke:none"
         id="path8-9-9" />
    </marker>
    <marker
       style="overflow:visible"
       id="RoundedArrow-6-8"
       refX="0"
       refY="0"
       orient="auto-start-reverse"
       inkscape:stockid="Rounded arrow"
       markerWidth="1"
       markerHeight="1"
       viewBox="0 0 1 1"
       inkscape:isstock="true"
       inkscape:collect="always"
       preserveAspectRatio="xMidYMid">
      <path
         transform="scale(0.7)"
         d="m -0.21114562,-4.1055728 6.42229122,3.21114561 a 1,1 90 0 1 0,1.78885438 L -0.21114562,4.1055728 A 1.236068,1.236068 31.717474 0 1 -2,3 v -6 a 1.236068,1.236068 148.28253 0 1 1.78885438,-1.1055728 z"
         style="fill:context-stroke;fill-rule:evenodd;stroke:none"
         id="path8-1-8" />
    </marker>
    <rect
       x="340.37524"
       y="88.265259"
       width="46.133121"
       height="32.904774"
       id="rect6-3" />
    <marker
       style="overflow:visible"
       id="RoundedArrow-66"
       refX="0"
       refY="0"
       orient="auto-start-reverse"
       inkscape:stockid="Rounded arrow"
       markerWidth="1"
       markerHeight="1"
       viewBox="0 0 1 1"
       inkscape:isstock="true"
       inkscape:collect="always"
       preserveAspectRatio="xMidYMid">
      <path
         transform="scale(0.7)"
         d="m -0.21114562,-4.1055728 6.42229122,3.21114561 a 1,1 90 0 1 0,1.78885438 L -0.21114562,4.1055728 A 1.236068,1.236068 31.717474 0 1 -2,3 v -6 a 1.236068,1.236068 148.28253 0 1 1.78885438,-1.1055728 z"
         style="fill:context-stroke;fill-rule:evenodd;stroke:none"
         id="path8-4" />
    </marker>
    <rect
       x="355.38263"
       y="143.11823"
       width="43.36491"
       height="27.859253"
       id="rect7-5" />
    <marker
       style="overflow:visible"
       id="RoundedArrow-1-2"
       refX="0"
       refY="0"
       orient="auto-start-reverse"
       inkscape:stockid="Rounded arrow"
       markerWidth="1"
       markerHeight="1"
       viewBox="0 0 1 1"
       inkscape:isstock="true"
       inkscape:collect="always"
       preserveAspectRatio="xMidYMid">
      <path
         transform="scale(0.7)"
         d="m -0.21114562,-4.1055728 6.42229122,3.21114561 a 1,1 90 0 1 0,1.78885438 L -0.21114562,4.1055728 A 1.236068,1.236068 31.717474 0 1 -2,3 v -6 a 1.236068,1.236068 148.28253 0 1 1.78885438,-1.1055728 z"
         style="fill:context-stroke;fill-rule:evenodd;stroke:none"
         id="path8-9-2" />
    </marker>
    <marker
       style="overflow:visible"
       id="RoundedArrow-1-6-1"
       refX="0"
       refY="0"
       orient="auto-start-reverse"
       inkscape:stockid="Rounded arrow"
       markerWidth="1"
       markerHeight="1"
       viewBox="0 0 1 1"
       inkscape:isstock="true"
       inkscape:collect="always"
       preserveAspectRatio="xMidYMid">
      <path
         transform="scale(0.7)"
         d="m -0.21114562,-4.1055728 6.42229122,3.21114561 a 1,1 90 0 1 0,1.78885438 L -0.21114562,4.1055728 A 1.236068,1.236068 31.717474 0 1 -2,3 v -6 a 1.236068,1.236068 148.28253 0 1 1.78885438,-1.1055728 z"
         style="fill:context-stroke;fill-rule:evenodd;stroke:none"
         id="path8-9-9-0" />
    </marker>
    <rect
       x="338.51315"
       y="71.102364"
       width="28.147146"
       height="20.056595"
       id="rect3-5" />
    <rect
       x="334.63028"
       y="117.07862"
       width="38.95977"
       height="26.595102"
       id="rect4-9" />
    <marker
       style="overflow:visible"
       id="RoundedArrow-1-2-7"
       refX="0"
       refY="0"
       orient="auto-start-reverse"
       inkscape:stockid="Rounded arrow"
       markerWidth="1"
       markerHeight="1"
       viewBox="0 0 1 1"
       inkscape:isstock="true"
       inkscape:collect="always"
       preserveAspectRatio="xMidYMid">
      <path
         transform="scale(0.7)"
         d="m -0.21114562,-4.1055728 6.42229122,3.21114561 a 1,1 90 0 1 0,1.78885438 L -0.21114562,4.1055728 A 1.236068,1.236068 31.717474 0 1 -2,3 v -6 a 1.236068,1.236068 148.28253 0 1 1.78885438,-1.1055728 z"
         style="fill:context-stroke;fill-rule:evenodd;stroke:none"
         id="path8-9-2-5" />
    </marker>
    <marker
       style="overflow:visible"
       id="RoundedArrow-1-2-7-1"
       refX="0"
       refY="0"
       orient="auto-start-reverse"
       inkscape:stockid="Rounded arrow"
       markerWidth="1"
       markerHeight="1"
       viewBox="0 0 1 1"
       inkscape:isstock="true"
       inkscape:collect="always"
       preserveAspectRatio="xMidYMid">
      <path
         transform="scale(0.7)"
         d="m -0.21114562,-4.1055728 6.42229122,3.21114561 a 1,1 90 0 1 0,1.78885438 L -0.21114562,4.1055728 A 1.236068,1.236068 31.717474 0 1 -2,3 v -6 a 1.236068,1.236068 148.28253 0 1 1.78885438,-1.1055728 z"
         style="fill:context-stroke;fill-rule:evenodd;stroke:none"
         id="path8-9-2-5-2" />
    </marker>
    <rect
       x="412.55347"
       y="599.65143"
       width="73.178764"
       height="40.150581"
       id="rect8-0" />
    <marker
       style="overflow:visible"
       id="RoundedArrow-66-8"
       refX="0"
       refY="0"
       orient="auto-start-reverse"
       inkscape:stockid="Rounded arrow"
       markerWidth="1"
       markerHeight="1"
       viewBox="0 0 1 1"
       inkscape:isstock="true"
       inkscape:collect="always"
       preserveAspectRatio="xMidYMid">
      <path
         transform="scale(0.7)"
         d="m -0.21114562,-4.1055728 6.42229122,3.21114561 a 1,1 90 0 1 0,1.78885438 L -0.21114562,4.1055728 A 1.236068,1.236068 31.717474 0 1 -2,3 v -6 a 1.236068,1.236068 148.28253 0 1 1.78885438,-1.1055728 z"
         style="fill:context-stroke;fill-rule:evenodd;stroke:none"
         id="path8-4-7" />
    </marker>
    <marker
       style="overflow:visible"
       id="RoundedArrow-66-8-3"
       refX="0"
       refY="0"
       orient="auto-start-reverse"
       inkscape:stockid="Rounded arrow"
       markerWidth="1"
       markerHeight="1"
       viewBox="0 0 1 1"
       inkscape:isstock="true"
       inkscape:collect="always"
       preserveAspectRatio="xMidYMid">
      <path
         transform="scale(0.7)"
         d="m -0.21114562,-4.1055728 6.42229122,3.21114561 a 1,1 90 0 1 0,1.78885438 L -0.21114562,4.1055728 A 1.236068,1.236068 31.717474 0 1 -2,3 v -6 a 1.236068,1.236068 148.28253 0 1 1.78885438,-1.1055728 z"
         style="fill:context-stroke;fill-rule:evenodd;stroke:none"
         id="path8-4-7-6" />
    </marker>
    <rect
       x="129.15089"
       y="889.97321"
       width="100.5"
       height="56.775593"
       id="rect18-9" />
    <rect
       x="129.15089"
       y="889.97321"
       width="100.5"
       height="56.775593"
       id="rect18-9-0" />
    <marker
       style="overflow:visible"
       id="RoundedArrow-66-8-6"
       refX="0"
       refY="0"
       orient="auto-start-reverse"
       inkscape:stockid="Rounded arrow"
       markerWidth="1"
       markerHeight="1"
       viewBox="0 0 1 1"
       inkscape:isstock="true"
       inkscape:collect="always"
       preserveAspectRatio="xMidYMid">
      <path
         transform="scale(0.7)"
         d="m -0.21114562,-4.1055728 6.42229122,3.21114561 a 1,1 90 0 1 0,1.78885438 L -0.21114562,4.1055728 A 1.236068,1.236068 31.717474 0 1 -2,3 v -6 a 1.236068,1.236068 148.28253 0 1 1.78885438,-1.1055728 z"
         style="fill:context-stroke;fill-rule:evenodd;stroke:none"
         id="path8-4-7-1" />
    </marker>
    <rect
       x="129.15089"
       y="889.97321"
       width="100.5"
       height="56.775593"
       id="rect18-9-3" />
    <marker
       style="overflow:visible"
       id="RoundedArrow-66-8-7"
       refX="0"
       refY="0"
       orient="auto-start-reverse"
       inkscape:stockid="Rounded arrow"
       markerWidth="1"
       markerHeight="1"
       viewBox="0 0 1 1"
       inkscape:isstock="true"
       inkscape:collect="always"
       preserveAspectRatio="xMidYMid">
      <path
         transform="scale(0.7)"
         d="m -0.21114562,-4.1055728 6.42229122,3.21114561 a 1,1 90 0 1 0,1.78885438 L -0.21114562,4.1055728 A 1.236068,1.236068 31.717474 0 1 -2,3 v -6 a 1.236068,1.236068 148.28253 0 1 1.78885438,-1.1055728 z"
         style="fill:context-stroke;fill-rule:evenodd;stroke:none"
         id="path8-4-7-4" />
    </marker>
  </defs>
  <g
     inkscape:label="Layer 1"
     inkscape:groupmode="layer"
     id="layer1">
    <rect
       style="fill:#ffffff;stroke:#ffffff;stroke-width:0.264999;stroke-linejoin:bevel"
       id="rect19"
       width="95.852524"
       height="73.172852"
       x="21.92481"
       y="20.671873"
       inkscape:export-filename="myPartD_face.svg"
       inkscape:export-xdpi="96"
       inkscape:export-ydpi="96" />
    <rect
       style="fill:#ffffff;stroke:#ffffff;stroke-width:0.264999;stroke-linejoin:bevel"
       id="rect19-7"
       width="96.355453"
       height="96.09668"
       x="27.889467"
       y="118.05829"
       inkscape:export-filename="myPartD_top.svg"
       inkscape:export-xdpi="96"
       inkscape:export-ydpi="96" />
    <text
       xml:space="preserve"
       transform="scale(0.26458333)"
       id="text1"
       style="font-size:14.6667px;line-height:1.25;font-family:sans-serif;white-space:pre;shape-inside:url(#rect1)"><tspan
         x="20.683594"
         y="25.296905"
         id="tspan2">myPartD.svg</tspan></text>
    <circle
       style="fill:none;stroke:#666666;stroke-width:0.264583;stroke-linejoin:bevel"
       id="path1"
       cx="55.845703"
       cy="63.743164"
       r="17.086912" />
    <circle
       style="fill:#ffffff;stroke:#666666;stroke-width:0.264583;stroke-linejoin:bevel"
       id="path1-5"
       cx="55.845703"
       cy="63.743164"
       r="11.972166" />
    <rect
       style="fill:none;stroke:#666666;stroke-width:0.264583;stroke-linejoin:bevel"
       id="rect2"
       width="52.916668"
       height="17.42668"
       x="29.387369"
       y="68.879395" />
    <rect
       style="fill:none;stroke:#666666;stroke-width:0.264583;stroke-linejoin:bevel"
       id="rect2-2"
       width="52.916668"
       height="11.338785"
       x="29.387369"
       y="71.923347" />
    <path
       style="fill:none;stroke:#e6e6e6;stroke-width:0.264583px;stroke-linecap:butt;stroke-linejoin:miter;stroke-opacity:1"
       d="M 82.304039,68.879393 H 106.56445"
       id="path2" />
    <path
       style="fill:none;stroke:#e6e6e6;stroke-width:0.264583px;stroke-linecap:butt;stroke-linejoin:miter;stroke-opacity:1"
       d="M 82.436329,86.570657 H 106.69674"
       id="path2-7" />
    <path
       style="fill:none;stroke:#000000;stroke-width:0.265;stroke-linecap:butt;stroke-linejoin:miter;stroke-opacity:1;marker-start:url(#RoundedArrow);marker-end:url(#RoundedArrow)"
       d="m 106.56445,70.499509 0.13229,14.732283"
       id="path3" />
    <path
       style="fill:none;stroke:#e6e6e6;stroke-width:0.264583px;stroke-linecap:butt;stroke-linejoin:miter;stroke-opacity:1"
       d="M 82.436329,71.923343 H 96.281857"
       id="path2-6" />
    <path
       style="fill:none;stroke:#e6e6e6;stroke-width:0.264583px;stroke-linecap:butt;stroke-linejoin:miter;stroke-opacity:1"
       d="M 82.436329,83.526711 H 96.281858"
       id="path2-7-0" />
    <path
       style="fill:none;stroke:#000000;stroke-width:0.265;stroke-linecap:butt;stroke-linejoin:miter;stroke-opacity:1;marker-start:url(#RoundedArrow-6);marker-end:url(#RoundedArrow-6)"
       d="m 95.968113,73.223838 0.13229,9.081495"
       id="path3-9" />
    <path
       style="fill:none;stroke:#e6e6e6;stroke-width:0.264583px;stroke-linecap:butt;stroke-linejoin:miter;stroke-opacity:1"
       d="M 38.494208,63.743164 V 29.994469"
       id="path2-3" />
    <path
       style="fill:none;stroke:#e6e6e6;stroke-width:0.264583px;stroke-linecap:butt;stroke-linejoin:miter;stroke-opacity:1"
       d="M 73.197199,63.743164 V 29.994468"
       id="path2-3-2" />
    <path
       style="fill:none;stroke:#e6e6e6;stroke-width:0.264583px;stroke-linecap:butt;stroke-linejoin:miter;stroke-opacity:1"
       d="M 43.873538,63.743164 V 39.294483"
       id="path2-3-7" />
    <path
       style="fill:none;stroke:#e6e6e6;stroke-width:0.264583px;stroke-linecap:butt;stroke-linejoin:miter;stroke-opacity:1"
       d="M 67.950161,63.743164 V 39.294483"
       id="path2-3-7-2" />
    <path
       style="fill:none;stroke:#000000;stroke-width:0.265;stroke-linecap:butt;stroke-linejoin:miter;stroke-opacity:1;marker-start:url(#RoundedArrow-1);marker-end:url(#RoundedArrow-1)"
       d="M 39.718266,30.147091 72.013179,29.934074"
       id="path3-8" />
    <path
       style="fill:none;stroke:#e6e6e6;stroke-width:0.264583px;stroke-linecap:butt;stroke-linejoin:miter;stroke-opacity:1"
       d="M 55.845706,63.875455 H 88.463819"
       id="path2-36" />
    <path
       style="fill:none;stroke:#e6e6e6;stroke-width:0.264583px;stroke-linecap:butt;stroke-linejoin:miter;stroke-opacity:1"
       d="m 82.436329,77.460441 h 6.722969"
       id="path2-6-3" />
    <path
       style="fill:none;stroke:#000000;stroke-width:0.265;stroke-linecap:butt;stroke-linejoin:miter;stroke-opacity:1;marker-start:url(#RoundedArrow-6-6);marker-end:url(#RoundedArrow-6-6)"
       d="m 88.631161,65.075595 0.13229,11.264822"
       id="path3-9-7" />
    <path
       style="fill:none;stroke:#000000;stroke-width:0.265;stroke-linecap:butt;stroke-linejoin:miter;stroke-opacity:1;marker-start:url(#RoundedArrow-1-6);marker-end:url(#RoundedArrow-1-6)"
       d="M 45.227934,39.400992 66.595765,39.187975"
       id="path3-8-4" />
    <text
       xml:space="preserve"
       transform="matrix(0.26458333,0,0,0.26458333,-35.341796,6.8554688)"
       id="text3"
       style="font-size:14.6667px;line-height:1.25;font-family:sans-serif;white-space:pre;shape-inside:url(#rect3)"><tspan
         x="338.51367"
         y="84.078155"
         id="tspan3">D1</tspan></text>
    <text
       xml:space="preserve"
       transform="matrix(0.26458333,0,0,0.26458333,-34.469726,4.4160156)"
       id="text4"
       style="font-size:14.6667px;line-height:1.25;font-family:sans-serif;white-space:pre;shape-inside:url(#rect4)"><tspan
         x="334.63086"
         y="130.05472"
         id="tspan4">D2</tspan></text>
    <text
       xml:space="preserve"
       transform="matrix(0.26458333,0,0,0.26458333,-0.73925781,26.885254)"
       id="text5"
       style="font-size:14.6667px;line-height:1.25;font-family:sans-serif;white-space:pre;shape-inside:url(#rect5)"><tspan
         x="338.30078"
         y="169.22073"
         id="tspan5">H1</tspan></text>
    <text
       xml:space="preserve"
       transform="matrix(0.26458333,0,0,0.26458333,6.1972657,52.603515)"
       id="text6"
       style="font-size:14.6667px;line-height:1.25;font-family:sans-serif;white-space:pre;shape-inside:url(#rect6)"><tspan
         x="340.375"
         y="101.24222"
         id="tspan6">D3</tspan></text>
    <text
       xml:space="preserve"
       transform="matrix(0.26458333,0,0,0.26458333,12.826661,38.001464)"
       id="text7"
       style="font-size:14.6667px;line-height:1.25;font-family:sans-serif;white-space:pre;shape-inside:url(#rect7)"><tspan
         x="355.38281"
         y="156.09573"
         id="tspan7">D4</tspan></text>
    <rect
       style="fill:none;stroke:#666666;stroke-width:0.264999;stroke-linejoin:bevel"
       id="rect8-4"
       width="34.570698"
       height="52.485348"
       x="43.476452"
       y="158.38315" />
    <rect
       style="fill:none;stroke:#666666;stroke-width:0.264999;stroke-linejoin:bevel"
       id="rect9-7"
       width="24.076626"
       height="52.485348"
       x="48.855782"
       y="158.38315" />
    <rect
       style="fill:none;stroke:#666666;stroke-width:0.264583;stroke-linejoin:bevel"
       id="rect2-0"
       width="52.916668"
       height="17.42668"
       x="34.303467"
       y="175.9991" />
    <rect
       style="fill:none;stroke:#666666;stroke-width:0.264583;stroke-linejoin:bevel"
       id="rect2-2-7"
       width="52.916668"
       height="11.338785"
       x="34.303467"
       y="179.04305" />
    <path
       style="fill:none;stroke:#e6e6e6;stroke-width:0.264583px;stroke-linecap:butt;stroke-linejoin:miter;stroke-opacity:1"
       d="M 87.352426,179.04305 H 101.19795"
       id="path2-6-4" />
    <path
       style="fill:none;stroke:#e6e6e6;stroke-width:0.264583px;stroke-linecap:butt;stroke-linejoin:miter;stroke-opacity:1"
       d="M 87.220135,190.38183 H 101.06566"
       id="path2-7-0-9" />
    <path
       style="fill:none;stroke:#000000;stroke-width:0.265;stroke-linecap:butt;stroke-linejoin:miter;stroke-opacity:1;marker-start:url(#RoundedArrow-6-8);marker-end:url(#RoundedArrow-6-8)"
       d="m 100.88421,180.34354 0.13229,9.08149"
       id="path3-9-2" />
    <text
       xml:space="preserve"
       transform="matrix(0.26458333,0,0,0.26458333,11.113363,159.72322)"
       id="text6-6"
       style="font-size:14.6667px;line-height:1.25;font-family:sans-serif;white-space:pre;shape-inside:url(#rect6-3);display:inline"><tspan
         x="340.375"
         y="101.24222"
         id="tspan8">D3</tspan></text>
    <path
       style="fill:none;stroke:#e6e6e6;stroke-width:0.264583px;stroke-linecap:butt;stroke-linejoin:miter;stroke-opacity:1"
       d="M 87.352426,175.8668 H 111.61284"
       id="path2-4" />
    <path
       style="fill:none;stroke:#e6e6e6;stroke-width:0.264583px;stroke-linecap:butt;stroke-linejoin:miter;stroke-opacity:1"
       d="M 87.352426,193.42577 H 111.61284"
       id="path2-7-8" />
    <path
       style="fill:none;stroke:#000000;stroke-width:0.265;stroke-linecap:butt;stroke-linejoin:miter;stroke-opacity:1;marker-start:url(#RoundedArrow-66);marker-end:url(#RoundedArrow-66)"
       d="m 111.48055,177.35463 0.13229,14.73228"
       id="path3-7" />
    <text
       xml:space="preserve"
       transform="matrix(0.26458333,0,0,0.26458333,17.742758,144.85658)"
       id="text7-1"
       style="font-size:14.6667px;line-height:1.25;font-family:sans-serif;white-space:pre;shape-inside:url(#rect7-5);display:inline"><tspan
         x="355.38281"
         y="156.09573"
         id="tspan9">D4</tspan></text>
    <path
       style="fill:none;stroke:#e6e6e6;stroke-width:0.264583px;stroke-linecap:butt;stroke-linejoin:miter;stroke-opacity:1"
       d="M 43.476244,158.25065 V 124.50196"
       id="path2-3-9" />
    <path
       style="fill:none;stroke:#e6e6e6;stroke-width:0.264583px;stroke-linecap:butt;stroke-linejoin:miter;stroke-opacity:1"
       d="M 78.179235,158.25065 V 124.50196"
       id="path2-3-2-0" />
    <path
       style="fill:none;stroke:#e6e6e6;stroke-width:0.264583px;stroke-linecap:butt;stroke-linejoin:miter;stroke-opacity:1"
       d="M 48.855574,158.25065 V 133.80197"
       id="path2-3-7-9" />
    <path
       style="fill:none;stroke:#e6e6e6;stroke-width:0.264583px;stroke-linecap:butt;stroke-linejoin:miter;stroke-opacity:1"
       d="M 72.932197,158.25065 V 133.80197"
       id="path2-3-7-2-1" />
    <path
       style="fill:none;stroke:#000000;stroke-width:0.265;stroke-linecap:butt;stroke-linejoin:miter;stroke-opacity:1;marker-start:url(#RoundedArrow-1-2);marker-end:url(#RoundedArrow-1-2)"
       d="m 44.700302,124.65458 32.294913,-0.21302"
       id="path3-8-7" />
    <path
       style="fill:none;stroke:#000000;stroke-width:0.265;stroke-linecap:butt;stroke-linejoin:miter;stroke-opacity:1;marker-start:url(#RoundedArrow-1-6-1);marker-end:url(#RoundedArrow-1-6-1)"
       d="m 50.20997,133.90848 21.367831,-0.21301"
       id="path3-8-4-7" />
    <text
       xml:space="preserve"
       transform="matrix(0.26458333,0,0,0.26458333,-30.35976,101.36296)"
       id="text3-1"
       style="font-size:14.6667px;line-height:1.25;font-family:sans-serif;white-space:pre;shape-inside:url(#rect3-5);display:inline"><tspan
         x="338.51367"
         y="84.078155"
         id="tspan10">D1</tspan></text>
    <text
       xml:space="preserve"
       transform="matrix(0.26458333,0,0,0.26458333,-29.48769,98.923509)"
       id="text4-5"
       style="font-size:14.6667px;line-height:1.25;font-family:sans-serif;white-space:pre;shape-inside:url(#rect4-9);display:inline"><tspan
         x="334.63086"
         y="130.05472"
         id="tspan11">D2</tspan></text>
    <path
       style="fill:none;stroke:#e6e6e6;stroke-width:0.264583px;stroke-linecap:butt;stroke-linejoin:miter;stroke-opacity:1"
       d="M 78.311526,158.38294 H 102.57194"
       id="path2-4-6" />
    <path
       style="fill:none;stroke:#e6e6e6;stroke-width:0.264583px;stroke-linecap:butt;stroke-linejoin:miter;stroke-opacity:1"
       d="M 78.179649,210.8687 H 102.44006"
       id="path2-4-5" />
    <path
       style="fill:none;stroke:#000000;stroke-width:0.265;stroke-linecap:butt;stroke-linejoin:miter;stroke-opacity:1;marker-start:url(#RoundedArrow-1-2-7);marker-end:url(#RoundedArrow-1-2-7)"
       d="m 100.67119,159.56955 0.21302,14.95312"
       id="path3-8-7-6" />
    <path
       style="fill:none;stroke:#000000;stroke-width:0.265;stroke-linecap:butt;stroke-linejoin:miter;stroke-opacity:1;marker-start:url(#RoundedArrow-1-2-7-1);marker-end:url(#RoundedArrow-1-2-7-1)"
       d="m 101.06566,194.61519 0.21302,14.95312"
       id="path3-8-7-6-9" />
    <text
       xml:space="preserve"
       transform="matrix(0.26458333,0,0,0.26458333,-7.4826258,6.2099718)"
       id="text2"
       style="font-size:14.6667px;line-height:1.25;font-family:sans-serif;white-space:pre;shape-inside:url(#rect8)"><tspan
         x="412.55273"
         y="612.62894"
         id="tspan12">D1 / 2</tspan></text>
    <text
       xml:space="preserve"
       transform="matrix(0.26458333,0,0,0.26458333,-7.1151638,40.99237)"
       id="text2-2"
       style="font-size:14.6667px;line-height:1.25;font-family:sans-serif;white-space:pre;shape-inside:url(#rect8-0);display:inline"><tspan
         x="412.55273"
         y="612.62894"
         id="tspan13">D1 / 2</tspan></text>
    <path
       style="fill:none;stroke:#000000;stroke-width:0.265;stroke-linecap:butt;stroke-linejoin:miter;stroke-opacity:1;marker-start:url(#RoundedArrow-66-8);marker-end:url(#RoundedArrow-66-8)"
       d="m 79.710385,151.48427 6.22193,-0.1323"
       id="path3-7-0" />
    <path
       style="fill:none;stroke:#e6e6e6;stroke-width:0.264583px;stroke-linecap:butt;stroke-linejoin:miter;stroke-opacity:1"
       d="M 87.220135,175.8668 V 151.41812"
       id="path2-3-7-2-1-5" />
    <path
       style="fill:none;stroke:#e6e6e6;stroke-width:0.264583px;stroke-linecap:butt;stroke-linejoin:miter;stroke-opacity:1"
       d="M 34.303467,175.86681 V 151.41813"
       id="path2-3-7-2-1-5-8" />
    <path
       style="fill:none;stroke:#000000;stroke-width:0.265;stroke-linecap:butt;stroke-linejoin:miter;stroke-opacity:1;marker-start:url(#RoundedArrow-66-8-3);marker-end:url(#RoundedArrow-66-8-3)"
       d="m 35.690226,151.48428 6.221932,-0.1323"
       id="path3-7-0-9" />
    <text
       xml:space="preserve"
       transform="matrix(0.26458333,0,0,0.26458333,-1.0799951,-89.878517)"
       id="text18"
       style="font-size:14.6667px;line-height:1.25;font-family:sans-serif;white-space:pre;shape-inside:url(#rect18)"><tspan
         x="129.15039"
         y="902.94925"
         id="tspan14">D4 / 2</tspan></text>
    <text
       xml:space="preserve"
       transform="matrix(0.26458333,0,0,0.26458333,42.945807,-89.514094)"
       id="text18-7"
       style="font-size:14.6667px;line-height:1.25;font-family:sans-serif;white-space:pre;shape-inside:url(#rect18-9);display:inline"><tspan
         x="129.15039"
         y="902.94925"
         id="tspan15">D4 / 2</tspan></text>
    <path
       style="fill:none;stroke:#e6e6e6;stroke-width:0.264583px;stroke-linecap:butt;stroke-linejoin:miter;stroke-opacity:1"
       d="M 82.171748,68.747102 V 44.298422"
       id="path2-3-7-2-1-5-3" />
    <path
       style="fill:none;stroke:#e6e6e6;stroke-width:0.264583px;stroke-linecap:butt;stroke-linejoin:miter;stroke-opacity:1"
       d="M 29.387369,68.747103 V 44.298423"
       id="path2-3-7-2-1-5-6" />
    <path
       style="fill:none;stroke:#000000;stroke-width:0.265;stroke-linecap:butt;stroke-linejoin:miter;stroke-opacity:1;marker-start:url(#RoundedArrow-66-8-6);marker-end:url(#RoundedArrow-66-8-6)"
       d="m 74.563059,45.213374 6.22193,-0.1323"
       id="path3-7-0-7" />
    <text
       xml:space="preserve"
       transform="matrix(0.26458333,0,0,0.26458333,37.798481,-195.78499)"
       id="text18-7-6"
       style="font-size:14.6667px;line-height:1.25;font-family:sans-serif;white-space:pre;shape-inside:url(#rect18-9-0);display:inline"><tspan
         x="129.15039"
         y="902.94925"
         id="tspan16">D4 / 2</tspan></text>
    <path
       style="fill:none;stroke:#000000;stroke-width:0.265;stroke-linecap:butt;stroke-linejoin:miter;stroke-opacity:1;marker-start:url(#RoundedArrow-66-8-7);marker-end:url(#RoundedArrow-66-8-7)"
       d="m 30.774128,45.213375 6.22193,-0.1323"
       id="path3-7-0-4" />
    <text
       xml:space="preserve"
       transform="matrix(0.26458333,0,0,0.26458333,-5.99045,-195.78498)"
       id="text18-7-7"
       style="font-size:14.6667px;line-height:1.25;font-family:sans-serif;white-space:pre;shape-inside:url(#rect18-9-3);display:inline"><tspan
         x="129.15039"
         y="902.94925"
         id="tspan17">D4 / 2</tspan></text>
  </g>
</svg>
